<svg xmlns="http://www.w3.org/2000/svg" width="755.906" height="755.906" viewBox="0 0 200 200"><defs><linearGradient id="canvaGradient" x1="-1136.885" y1="240.224" x2="-1041.571" y2="400.494" gradientUnits="userSpaceOnUse"><stop offset="0" stop-color="#0ec3cd"/><stop offset="1" stop-color="#7228f2"/></linearGradient></defs><path d="M49.007 70.716l-3.037.176c-1.804.271-2.187.36-3.507.811-2.218.758-4.615 1.954-6.191 3.093l-.929.612c-.198.101-.48.314-.688.507l-1.119.977-.975.842c-.223.206-.773.792-1.301 1.37l-.72.8-.396.475c-.091.141-.342.481-.582.794l-.332.425-.19.224c-.275.261-.662.857-1.016 1.514l-.277.49-.097.155-.026.036-.01.007h0 0 0c-.035.022-.046.042-.066.067l-.074.106-.196.319-.519.939-.859 1.773c-.12.342-.319.829-.431 1.056-.607 1.236-1.573 4.332-1.73 5.559l-.232 1.536c-.301 1.753-.388 3.308-.327 5.835l.202 3.422.25 1.664c.291 1.925.919 3.915 1.793 5.681l.338.714.101.235.024.066v.016h0 0c.01.068.027.101.051.153a2.46 2.46 0 0 0 .11.206l.374.588 1.162 1.592c1.011 1.297 2.824 2.908 3.932 3.472l.518.28.274.173c.113.101.282.188.521.303l.859.376 1.887.661c1.006.269 2.754.526 4.088.604l.196.012v-.018c2.149.101 4.509-.17 6.188-.746 2.028-.696 4.622-2.166 6.146-3.485l1.155-.981c.366-.306.83-.773 1.064-1.073l.332-.386c.107-.113.21-.205.237-.223.104-.068.206-.176.346-.326l.454-.516.408-.513.135-.195.045-.08c.01-.018.019-.033.025-.062v-.053l-.001.031a1.16 1.16 0 0 1 .065-.093 3.69 3.69 0 0 1 .234-.279c.194-.211.606-.784.993-1.341l.512-.761.166-.267.051-.094c.011-.023.026-.025.032-.077v.007h0 0 0 0 0 0 0 0c-.001-.011-.001-.015.009-.02l.001-.033-.001.033c0-.007.01-.015.011-.025l.075-.146.253-.456.163-.254c0 .044.01.06.01.117 0 .905.462 2.754.947 3.905l.238.591.071.195c.01.024.014.043.017.054v.001.012h0 0 0c.01.095.039.126.072.186a2.97 2.97 0 0 0 .145.222l.449.581c.347.421.744.86 1.009 1.078l.362.308.12.108.044.045h0c.027.044.048.051.072.065l.075.041.208.093.609.233 1.281.4c.827.187 2.366.13 3.39-.11l.665-.179.226-.079.082-.038c.022-.012.045-.014.079-.058 0-.003.011-.01.023-.014.028-.009.073-.016.111-.016.155 0 .281-.062.463-.145a7.66 7.66 0 0 0 .61-.319c.432-.249.869-.538 1.1-.769a10.85 10.85 0 0 1 .748-.658c.266-.211.587-.517.846-.791l.329-.374a1.54 1.54 0 0 0 .106-.148c.024-.04.053-.065.059-.14 0-.006.01-.014.013-.024l.094-.142.324-.428.673-.922.038-.058.033.106c.603 2.458 1.941 4.314 3.643 4.955.986.371 1.496.463 2.537.459a5.52 5.52 0 0 0 1.816-.267l1.065-.311c.195-.047.443-.177.76-.365a13.64 13.64 0 0 0 1.066-.71c.37-.271 1.026-.886 1.629-1.492l.811-.851c.224-.249.378-.424.453-.576a2.22 2.22 0 0 1 .278-.411c.122-.123.331-.398.513-.661l.017-.023c.086 1.717.364 2.993.903 4.037.358.694.555.89 1.168 1.18.996.471 2.585.431 3.717-.069.294-.13.514-.272.674-.533s.265-.615.422-1.208l.599-2.092.547-1.812.326-.955.343-.842.735-1.713.377-.873.116-.295.035-.098c.01-.023.015-.03.017-.069h0v-.032.022c0-.017.013-.039.024-.067l.105-.233.376-.753 1.04-1.932.366-.674.221-.458c.01-.026.137-.26.304-.534l.605-.954.635-.952.393-.537a1.46 1.46 0 0 0 .151-.19.8.8 0 0 0 .053-.093c.012-.026.025-.05.03-.092v.006h0 0 0 0 0 0 0c0-.022.013-.038.025-.057l.127-.192.44-.579 1.007-1.156.366-.384.12-.15a.66.66 0 0 0 .042-.067c.01-.017.02-.032.027-.063 0-.005.01-.012.015-.019l.122-.132.423-.39c.425-.365.825-.598 1.15-.694s.555-.063.717.072c.059.049.128.17.168.392s.051.537.028.942c-.046.809-.226 1.978-.546 3.55l-.497 2.447-.486 2.297c-.739 3.391-.882 6.111-.391 7.992s1.501 3.444 2.656 3.968l.593.28c.42.223 1.127.344 1.87.393s1.507.02 2.021-.131c.65-.19 1.279-.432 1.795-.681s.915-.494 1.132-.748a3.41 3.41 0 0 1 .097-.092l.233-.208.701-.603.68-.6.212-.206.067-.074c.01-.012.018-.023.028-.04s.02-.021.027-.053l-.01.011c.01-.03.01-.046.01-.067v.049l.044-.065.194-.267.651-.832c.515-.641 1.063-1.412 1.251-1.781l.248-.456.159-.251c.048-.056.085-.119.146-.221l.22-.384.582-1.071.559-1.083.194-.397.101-.244c.021-.077.102-.301.207-.567l.364-.884.262-.594.132.804 1.141 5.501c.345 1.22 1.045 2.916 1.534 3.691l.265.448.077.149c.01.014.011.025.014.032-.001-.006-.001-.014-.001-.026l.001.026v.01h0 0 0 0 0 0 0c-.001.042.017.056.026.075a.63.63 0 0 0 .039.067c.029.046.067.097.113.156l.352.413c1.063 1.163 2.488 1.519 3.852.949l.793-.308a1.77 1.77 0 0 0 .336-.155l.441-.26c.305-.191.589-.38.731-.527.025-.026.145-.133.294-.258l.518-.424c.386-.308 1.062-.942 1.528-1.43l1.397-1.458.405-.446.13-.163a.64.64 0 0 0 .043-.066c.011-.019.028-.027.034-.082l.097-.146.299-.396.632-.739c.159-.152.411-.491.651-.83l.316-.468.103-.175.034-.071a.15.15 0 0 0 .021-.058v-.046l-.001.031c.012-.031.033-.065.061-.104a3.55 3.55 0 0 1 .219-.284c.197-.233.643-.877 1.057-1.499l.549-.845.176-.291.053-.099c.01-.014.014-.028.02-.044 0-.007.01-.014.01-.024h0 0 0 0 0 0 0 0c.009-.021.009-.027.009-.033.009-.003.022-.032.041-.067l.169-.302.561-.954 1.283-2.358.355-.682.101-.153c.025.003.051.019.081.022a3.89 3.89 0 0 0 .312.022h.873c.645-.017 1.337-.063 1.707-.141.897-.188 2.142-.663 2.783-1.069l.141-.088c-.01.02-.01.031-.013.051l-.382 1.345c-.759 2.672-.992 4.222-.972 6.462.017 1.986.25 3.586.717 4.892l.404 1.136a5.4 5.4 0 0 0 .274.64c.1.197.192.357.293.466.032.034.271.327.485.602.641.823 1.369 1.388 2.245 1.737 1.495.595 2.626.715 4.184.443 1.302-.227 2.883-.849 3.563-1.444l1.137-.994.678-.642c.203-.208.363-.385.452-.52l.891-1.248.419-.568.173.561.362 1.224c.094.363.375.826.738 1.312s.808.981 1.24 1.349c.445.38 1.381.774 2.231.975.963.227 2.31.142 3.514-.207l.66-.21.23-.089.082-.038c.025-.013.044-.02.08-.056v.004h0 0 0c0-.001.026-.016.054-.024a.47.47 0 0 1 .122-.019c.089 0 .134-.023.205-.05a3.29 3.29 0 0 0 .244-.108l.624-.332.618-.377c.179-.118.306-.201.395-.309 0 .002.036-.038.087-.084l.201-.178.587-.491c.446-.364.923-.825 1.112-1.105l.793-1.105a9.51 9.51 0 0 0 .881-1.502l.447-.951c.085-.152.125-.362.183-.714l.181-1.442a4.74 4.74 0 0 0-.054-1.182c-.064-.398-.154-.752-.302-.982-.111-.174-.299-.277-.509-.333s-.449-.062-.688-.014c-.087.017-.183.046-.269.111a.8.8 0 0 0-.218.278c-.128.243-.26.628-.495 1.333-.285.856-.83 1.954-1.426 2.936s-1.251 1.854-1.715 2.25c-.728.622-1.339.924-1.79.946s-.774-.193-1.043-.738a1.58 1.58 0 0 1-.183-.595c-.034-.266-.048-.673-.062-1.397-.024-1.253.012-1.866.176-2.951l1.01-5.094 2.458-8.972.54-1.776a4.2 4.2 0 0 0 .105-1.047c0-.512-.032-.866-.157-1.152s-.35-.477-.654-.636c-.345-.18-.703-.245-1.426-.277a4.87 4.87 0 0 0-2.881.656c-.86.47-2.186 1.745-2.864 2.732l-.324.428a3.22 3.22 0 0 1-.127-.396c-.227-.885-.499-1.375-1.122-2.018-1.147-1.185-2.179-1.61-4.076-1.685-1.04-.041-1.338-.012-2.206.212-2.458.633-5.025 2.52-7.008 5.124-.363.477-.915 1.095-1.449 1.642s-1.061 1.027-1.34 1.215c-.573.387-1.702.955-2.373 1.195-.272.097-.866.192-1.418.235l-.761.028c-.218-.004-.396-.031-.436-.046l-.034-.013.259-.597.242-.596.075-.219c.019-.061.035-.087.035-.168l.001.015h0 0 0 0 0c0-.006.01-.053.02-.098l.071-.247.239-.727c.898-2.58 1.285-4.766 1.206-6.855-.058-1.534-.201-2.138-.754-3.195-.807-1.545-2.129-2.308-3.989-2.314-1.913-.006-3.848 1.022-5.037 2.664l-.27.358-.097.118c-.016.019-.035.036-.038.039h0 0 0 0 0c-.042.03-.054.059-.074.091s-.039.068-.061.114l-.16.381-.582 1.577c-.762 2.132-.654 4.861.274 7.143.531 1.307.603 1.434 1.186 2.141.836 1.014 1.463 1.579 2.236 2.003l.457.266.068.045-.142.298-.479.969-.767 1.533c-.41.844-1.097 2.036-1.737 3.01l-.375.596-.117.206-.037.075c-.01.02-.022.022-.025.077 0 .005-.01.012-.01.019a2.33 2.33 0 0 1-.072.129l-.236.382-.258.384-.098.133c-.019.025-.04.046-.042.049h0 0 0c-.055.041-.071.068-.119.125l-.174.217-.47.613-.448.606-.147.21-.046.072c-.01.01-.012.02-.018.033s-.016.01-.021.049c-.01.008-.013.019-.023.031a2.78 2.78 0 0 1-.15.174l-.512.515c-.396.379-.865.788-1.076.928-.278.185-.461.258-.58.259s-.221-.052-.387-.225c-.132-.137-.325-.464-.495-.857s-.325-.857-.423-1.292c-.32-1.409-.732-5.198-.835-7.735l-.056-1.18-.049-.652c0 .009 0-.037-.01-.095l-.01-.238-.013-.79-.012-2.419c0-3.168.047-4.078.301-5.664.068-.423.089-.774.038-1.075s-.186-.556-.412-.733c-.451-.354-1.179-.415-2.321-.373-1.062.039-1.302.086-1.907.365-.917.422-1.23.666-1.842 1.432-1.143 1.433-1.555 2.734-1.813 5.689l-.236 2.707c-.148 1.695-.744 3.734-1.707 5.807l-.313.729-.098.272c-.024.075-.043.116-.043.202 0 .019 0 .028-.01.038 0 .003-.018.005-.022.008-.023.018-.038.035-.054.052a1.06 1.06 0 0 0-.09.121 3.33 3.33 0 0 0-.193.349 13.29 13.29 0 0 1-1.331 2.144l-.306.423-.098.162c-.013.024-.024.046-.033.069s-.018.037-.021.076l.001-.004h0 0a.41.41 0 0 1-.054.096 3.61 3.61 0 0 1-.233.278l-.781.776-.903.788c-.283.229-.537.409-.668.475-.644.323-1.098.356-1.412.175s-.55-.621-.658-1.383c-.215-1.516.123-3.848 1.322-8.861.829-3.464 1.024-4.614 1.087-6.41.081-2.282-.215-3.62-1.09-4.809-.594-.808-.898-1.073-1.605-1.406-.592-.278-.848-.333-1.761-.365s-1.171.001-1.82.228c-.343.12-.83.338-1.254.548l-.561.297-.197.122c-.054.037-.094.061-.139.118v-.002h0 0a.57.57 0 0 1-.055.051l-.14.113-.4.296-.396.272-.133.083c-.01.004-.014.007-.019.01l.038-.002-.04.002-.012.006h0 0 0 0 0 0 0 0 0 0 0 0 0c-.03.005-.038.016-.05.022s-.028.017-.041.026l-.082.065-.233.209-.683.673-1.279 1.277a5.24 5.24 0 0 0-.661.774l-.59.807-.451.542c-.07.063-.143.154-.242.28l-.332.444-.602.901-.856 1.351-.935 1.433.034-.15c.359-1.319.608-2.857.723-4.264s.097-2.675-.099-3.485c-.177-.73-.67-1.688-1.117-2.106-.168-.157-.483-.339-.77-.467-.669-.298-1.615-.3-2.512-.122s-1.743.533-2.19 1.064c-.128.152-.225.294-.264.514s-.039.511-.039 1.06c0 2.175-.559 5.613-1.325 8.132l-1.625 4.735c-.121.323-.502 1.153-.877 1.932l-.528 1.069-.325.594a1.83 1.83 0 0 0-.143.243c-.032.067-.062.113-.069.195l.001-.002h0 0 0 0 0 0 0l-.002.046.001-.029c-.01.012-.013.029-.024.051l-.114.207-.364.603-.389.603-.145.208-.064.078h0 0 0 0c-.064.054-.137.139-.24.258l-.338.409-.305.399-.102.147-.035.059c-.01.02-.03.021-.03.11v-.025h0 0 0 0 0 0 0 0 0 0 0 0c-.01.006-.023.052-.067.101a2.74 2.74 0 0 1-.302.273 8.8 8.8 0 0 1-1.051.7c-.687.395-.949.495-1.366.533-.273.025-.391.027-.459.003s-.149-.094-.333-.279c-.168-.169-.243-.257-.299-.391s-.098-.336-.155-.706c-.124-.802-.111-1.326.095-3.736.14-1.645.957-5.483 1.855-8.681l.212-.816.065-.301c.016-.083.027-.136.027-.2s.048-.316.223-.906l.961-3.048.767-2.649c.116-.565.104-.913.01-1.238a1.79 1.79 0 0 0-.796-1.048c-.393-.239-.902-.363-1.533-.396-2.153-.113-4.091 1.054-5.617 3.343l-.382.519-.083-.373c-.259-1.423-1.643-2.88-3.212-3.438-.463-.165-.957-.232-1.918-.269-1.534-.06-2.488.133-3.795.767a16.72 16.72 0 0 0-1.359.754l-.533.349-.175.137c-.041.036-.075.051-.108.12-.092.001-.101.025-.13.042a1.19 1.19 0 0 0-.096.061l-.257.194-.694.581-.668.605-.223.225-.072.086a.56.56 0 0 0-.03.047c-.01.011-.014.022-.02.042v.061-.04a1.03 1.03 0 0 1-.06.076 2.95 2.95 0 0 1-.233.24c-.205.191-.605.678-1.003 1.188l-.895 1.239-.719 1.257c-.752 1.3-1.055 1.967-1.536 3.372-.375 1.096-.547 1.497-1.472 3.433l-.374.808-.116.268-.034.087c0 .012-.01.024-.012.037s-.01.019-.01.063v-.032a.59.59 0 0 1-.048.123l-.204.385-.785 1.37c-.669 1.141-1.968 3.035-2.449 3.584l-1.004 1.212a8.91 8.91 0 0 1-1.121 1.128l-.488.42-.155.152-.053.062c-.01.011-.016.022-.025.04v.012c-.01.007-.021.022-.041.041l-.191.169-.609.489-.633.471-.22.149-.053.031.034-.001c-.013 0-.025 0-.035.002s-.02.005-.022.004h0 0 0 0 0 0 0 0 0 0c-.037.005-.057.018-.083.03a1.1 1.1 0 0 0-.115.059 2.7 2.7 0 0 0-.267.178c-.25.188-.866.52-1.535.833s-1.401.615-1.908.775l-.995.314-2.272.001c-1.933.001-2.38-.027-2.937-.175l-.52-.149-.276-.095-.985-.463a7.92 7.92 0 0 1-1.349-.816l-.427-.329-.158-.105-.065-.036c-.017-.008-.027-.02-.066-.024 0-.003-.011-.008-.018-.013-.032-.024-.08-.065-.136-.116l-.404-.406c-.295-.315-.61-.692-.701-.844-.119-.2-.287-.439-.408-.569-.205-.222-.641-.925-1.001-1.594l-.462-.931-.138-.341c-.031-.091-.043-.164-.043-.162 0-.106-.027-.207-.065-.352l-.147-.478c-.729-2.091-1.092-4.672-1.096-7.807h0c0-3.083.192-4.483 1.155-8.321.268-1.068.913-2.821 1.485-4.027l.802-1.715c.342-.749 1.032-1.904 1.523-2.551a8.15 8.15 0 0 0 .645-.995c.114-.222.334-.543.448-.665l.978-1.144c.411-.496 1.114-1.235 1.781-1.893l1.56-1.403 1.23-.865a16.01 16.01 0 0 1 1.407-.913l.543-.282c.146-.065.269-.092.263-.092.153 0 .287-.026.409-.147h0 0 0c0-.002.049-.033.112-.063.072-.034.17-.074.287-.116l.864-.272c.654-.184 1.404-.354 1.848-.403.804-.089 1.095-.082 1.829.042l.701.146a3.32 3.32 0 0 1 .42.129c1.205.612 1.507.81 1.836 1.193l.265.334.074.112c.01.013.012.023.013.025 0 .008 0 .024.01.032.01.02.013.041.021.064l.065.167.207.463c.768 1.626.756 4.695-.051 6.681l-.174.474-.055.186c-.011.045-.021.077-.024.123l-.001.027-.037.1-.147.34-.489 1.024c-.382.766-.61 1.286-.714 1.699s-.07.735.076 1.016c.267.516.904.712 1.635.67s1.589-.316 2.403-.811l.415-.239.135-.07.024-.01-.029.001.03-.001.01-.004h0 0 0 0 0 0 0 0 0 0c.055-.004.091-.025.131-.045a1.16 1.16 0 0 0 .148-.094 4.03 4.03 0 0 0 .357-.301 9.72 9.72 0 0 0 .847-.903l.725-.849c.209-.211.444-.605.683-1.074a10.45 10.45 0 0 0 .615-1.457c.46-1.436.609-2.311.613-3.593v-.001c0-1.304-.114-2.099-.454-3.068l-.281-.888c-.046-.2-.187-.418-.386-.709l-.727-.962-.811-.926c-.255-.267-.468-.47-.651-.576l-1.155-.693c-1.203-.727-2.704-1.319-3.715-1.45l-1.361-.212c-.547-.101-1.622-.138-2.758-.128zm.978 43.498zm8.107-9.843zm6.46-12.036v-.021l-.001-.002h0 0 0 0 0 0v.023zm23.686 15.867zm18.165-17.766zm35.839 14.94zm-2.152 3.209v.016h0 0 0 0 0zm-13.19 6.806h0zm-8.346-1.529zm-58.307.009zm-1.784-3.993zm-2.054 2.925c-.002.009-.001.016-.001.022v.002h0 0 0 0 0v-.025zm-30.513.21zm0-.004l-.001-.01zm117.207-26.294c.094.004.197.026.313.064.223.074.356.169.457.324s.17.385.204.725c.221 2.168-.093 4.615-.933 7.211l-.283.842-.02.053-.226-.359c-.2-.342-.419-.758-.524-1.016-.531-1.303-.665-2.026-.67-3.599 0-1.607.096-2.148.6-3.223.222-.473.441-.763.655-.903a.69.69 0 0 1 .333-.118.7.7 0 0 1 .092-.001zm21.356 6.046a2.11 2.11 0 0 1 .226.003 1.49 1.49 0 0 1 .752.247c.433.291.779.872 1.074 1.82.146.469.174.857.174 2.49-.001 2.131-.118 2.985-.731 5.335l-.389 1.634c-.047.26-.31 1.021-.633 1.83l-1.003 2.262-.356.716-.111.242-.033.082c-.01.024-.021.02-.021.1v-.034h0 0 0 0c0 .003-.01.041-.028.075-.028.053-.073.128-.13.215l-.451.636-1.046 1.265c-.321.322-.81.685-1.077.812-.49.232-.882.323-1.256.286s-.744-.203-1.186-.527c-.496-.364-.819-.831-.931-1.32l-.285-1.131c-.281-1.069-.29-3.228 0-4.812l.309-1.765c.079-.483.467-1.686.918-2.896l1.306-3.063c.348-.634 1.165-1.855 1.472-2.21l.687-.832c.173-.225.531-.532.91-.79s.791-.472 1.046-.54a3.64 3.64 0 0 1 .792-.131zm-90.504.01c.355-.015.669.052 1.008.196.134.057.201.101.286.206s.185.28.327.575c.565 1.168.668 1.707.668 3.475 0 1.977-.329 4.023-1.131 6.997-.223.828-1.023 2.917-1.382 3.612l-.577 1.203c-.304.665-.819 1.429-1.369 2.075s-1.142 1.175-1.55 1.371a4.08 4.08 0 0 1-.873.298c-.32.046-.757-.035-1.16-.203s-.769-.425-.967-.688c-.131-.175-.272-.504-.562-1.385-.685-2.076-.383-5.842.806-9.455.382-1.159.98-2.529 1.581-3.693s1.229-2.134 1.577-2.44c.148-.13.366-.385.526-.604.14-.191.439-.48.745-.727s.637-.46.79-.516c.503-.185.899-.283 1.254-.298zm31.787 3.391c0 .02 0 .033-.01.042 0-.012 0-.025.01-.042zm-.01.044l-.011.014h0 0 0 0 0 0 0 0 0 0 0 0 0 0zm31.836 10.48h0 0 0 0 0 0 0 0-.01 0zm-2.15 3.021h0 0 0 0 0 0 0 0 0 0zm-.01.028c-.001.009 0 .017 0 .029v-.029zm2.522 1.709v.03c.001-.009 0-.018 0-.03zm0 .04l-.001.014h0 0 0 0 0 0 0 0 0 0 0 0 0 0zm-64.401 1.906v.013h0 0 0 0 0 0 0 0 0 0 0zm-37.546.823a.24.24 0 0 1 .031.002l-.031-.002zm.044.004l.011.006h0 0 0 0 0 0 0 0z" fill="#fff"/><path d="M-1091.071 416.454l-9.445-.968-2.251-.341c-2.519-.368-5.123-.926-8.662-1.855l-2.153-.546c-.449-.102-1.81-.546-5.775-1.884l-.979-.315-.832-.299-1.077-.439-1.175-.483-1.175-.487-3.915-1.715-2.3-1.093-1.175-.618c-.242-.15-1.1-.614-1.906-1.031l-2.6-1.48-1.247-.74c-.792-.423-2.465-1.487-2.823-1.795a3.32 3.32 0 0 0-.624-.403c-.366-.172-.894-.528-2.299-1.548-.484-.351-.93-.639-.991-.639s-.171-.072-.244-.16-.607-.51-1.187-.938l-1.054-.852c0-.041-.115-.127-.256-.191-.291-.132-1.531-1.123-2.189-1.748-.241-.229-.48-.417-.531-.417-.099 0-.793-.593-1.82-1.555-.35-.328-.68-.596-.734-.597s-.581-.486-1.172-1.077l-1.151-1.076c-.07 0-1.038-.964-4.015-3.995l-1.053-1.156c0-.046-.485-.59-1.077-1.209l-1.076-1.223c0-.054-.247-.363-.547-.686-.74-.795-1.605-1.86-1.605-1.975 0-.052-.115-.201-.255-.332-.323-.301-1.218-1.456-2.385-3.079l-1.198-1.597c-.157-.181-.327-.436-.377-.567-.089-.235-.849-1.407-.974-1.502-.134-.102-1.084-1.574-1.182-1.831-.056-.148-.139-.292-.183-.32s-.359-.513-.699-1.078l-.742-1.154c-.068-.069-.264-.422-.435-.783a13.38 13.38 0 0 0-.62-1.146c-.713-1.131-3.773-7.092-3.773-7.349 0-.072-.215-.583-.478-1.137l-1.675-3.95c0-.082-.084-.334-.187-.56-.446-.981-1.807-4.81-2.094-5.89l-.507-1.712-1.429-5.214-.344-1.685c-1.081-4.998-1.72-9.066-1.9-12.085l-.213-3.034c-.074-.916-.123-3.377-.126-6.214-.01-8.278.514-13.669 1.962-20.319.25-1.149.489-2.332.53-2.628.092-.662.644-2.745 1.296-4.893l.681-2.3c.376-1.353 1.379-4.199 2.078-5.894.138-.335.252-.675.252-.755s.107-.379.237-.664a25.11 25.11 0 0 0 .43-1.006c.106-.268.347-.818.535-1.221.649-1.389.951-2.082.951-2.178 0-.181 2.914-5.896 3.478-6.822.311-.51.669-1.148.797-1.419.241-.51 1.221-2.124 1.758-2.894.169-.242.372-.594.451-.781s.301-.546.493-.796.798-1.129 1.347-1.952c1.117-1.675 1.629-2.386 2.013-2.795a2.42 2.42 0 0 0 .388-.571c.07-.161.551-.8 1.069-1.419s.98-1.218 1.027-1.332.321-.466.609-.783c.917-1.009 1.546-1.774 1.546-1.881 0-.057.082-.161.183-.232s.772-.789 1.492-1.596c2.007-2.25 5.704-5.925 7.818-7.772l1.175-1.048c.188-.177.673-.583 1.077-.903a23.45 23.45 0 0 0 1.175-.994c.242-.227.617-.524.832-.661.392-.249 1.132-.824 1.415-1.099.312-.303 1.363-1.076 1.464-1.076.058 0 .27-.146.472-.324.394-.348 2.438-1.828 2.525-1.828.072 0 1.826-1.182 1.977-1.332s1.247-.821 1.34-.821c.036 0 .427-.234.868-.52 1.79-1.16 2.103-1.349 2.77-1.668.383-.183.945-.492 1.249-.686a19.58 19.58 0 0 1 1.311-.743l1.002-.526c.686-.383 4.685-2.297 4.914-2.352.146-.035.63-.235 1.077-.445 1.81-.851 2.802-1.259 4.335-1.784.161-.055.822-.298 1.468-.539 2.327-.869 3.923-1.416 4.355-1.494.242-.044 1.233-.321 2.202-.617 2.346-.716 5.305-1.426 8.466-2.031 4.665-.892 7.444-1.271 11.887-1.618 2.212-.173 11.625-.204 13.805-.045 4.372.318 8.537.89 13.115 1.802l2.3.446c.804.145 4.232 1.061 5.913 1.581.704.218 1.479.432 1.721.477.416.077 3.232 1.029 3.866 1.308.161.071.756.293 1.321.494 1.623.576 2.368.854 2.789 1.042l1.517.681a34.31 34.31 0 0 0 1.746.734c1.166.427 7.419 3.581 7.65 3.859.091.109.793.49.911.494.064.002.344.145.621.318l1.604.999 1.592.962c.528.297 1.651 1.037 1.732 1.142.086.111 1.213.835 1.48.95.141.061.406.238.587.394s1.116.851 2.076 1.546 2.014 1.496 2.342 1.78.63.516.672.516c.092 0 1.187.902 1.628 1.341.175.174.572.5.881.724s.87.703 1.247 1.065.949.877 1.272 1.145.94.83 1.37 1.25l2.153 2.096c.754.733 1.393 1.387 1.42 1.453s.514.595 1.082 1.174 1.147 1.207 1.287 1.396.633.739 1.094 1.223.839.92.841.968c0 .091.566.772 1.266 1.527.224.242.605.727.846 1.076s.66.9.93 1.223.986 1.284 1.589 2.136 1.21 1.677 1.349 1.834a4.67 4.67 0 0 1 .514.8c.144.283.431.738.638 1.011.444.584 1.077 1.581 2.078 3.271.399.673.751 1.245.782 1.272.124.105.776 1.29.776 1.41 0 .07.111.292.247.492s.497.834.803 1.408.679 1.24.83 1.479.274.492.274.561.424.975.942 2.011 1.064 2.215 1.213 2.619c.241.655.64 1.591 1.314 3.082.122.269.355.864.52 1.321l.706 1.957c.824 2.278 1.584 4.571 1.766 5.333a33.2 33.2 0 0 0 .392 1.468c.698 2.333 1.613 5.981 1.718 6.85.033.269.207 1.26.387 2.202 2.228 11.645 2.276 24.059.136 35.529l-.397 2.243c-.267 1.744-1.313 5.987-2.002 8.119-.13.402-.236.828-.236.947 0 .206-1.477 4.587-1.797 5.331-.084.195-.238.657-.343 1.027-.17.6-.78 2.138-1.276 3.217-.178.387-.725 1.693-1.108 2.642-.185.461-1.361 2.87-2.411 4.942-.594 1.172-2.145 4.012-2.52 4.615-1.077 1.73-1.311 2.127-1.311 2.217 0 .056-.101.226-.225.378s-.507.717-.851 1.255-.685 1.038-.756 1.11a2.29 2.29 0 0 0-.288.44c-.206.401-.907 1.455-1.051 1.581-.157.137-1.06 1.414-1.217 1.722-.071.14-.283.426-.47.636s-.723.889-1.19 1.508-1.18 1.515-1.584 1.991l-.93 1.125a23.8 23.8 0 0 1-1.797 2.013c-.181.16-.358.373-.395.472-.181.49-6.496 6.778-7.96 7.927-.284.223-.53.439-.548.48s-.458.428-.979.859l-1.118.933a73.19 73.19 0 0 1-2.406 1.961c-.206.126-1.677 1.245-2.346 1.784-.285.229-.562.417-.616.417s-.344.187-.646.416c-1.074.816-2.419 1.737-2.537 1.737-.066 0-.135.036-.153.08s-.473.36-1.011.702-1.067.699-1.175.793-.592.375-1.076.626-.947.514-1.028.586c-.189.167-2.516 1.519-2.616 1.52-.041 0-.472.223-.956.496-1.588.894-7.566 3.809-7.812 3.809-.146 0-1.332.466-1.486.584-.054.041-.472.217-.93.391a27.58 27.58 0 0 0-1.126.45c-.557.254-1.855.729-1.994.729-.077 0-.672.197-1.323.438-1.458.539-4.724 1.585-5.222 1.673-.202.036-.851.197-1.443.358a78.03 78.03 0 0 1-9.983 2.126c-4.38.668-7.226.969-11.158 1.179-2.055.11-7.551.104-9.738-.01zm-50.944-78.907c1.327-.217 2.712-.684 4.062-1.37 1.977-1.004 2.986-1.645 4.08-2.592l1.157-.983c.353-.296.82-.766 1.037-1.045s.493-.571.613-.65c.246-.161 1.334-1.461 1.335-1.594 0-.048.157-.257.348-.465.333-.362 1.707-2.343 1.707-2.461 0-.031.163-.34.362-.686.383-.666.514-.677.517-.046 0 .839.459 2.712.933 3.834.187.444.341.848.341.898 0 .185 1.132 1.559 1.609 1.951.273.225.521.444.553.487.074.102 1.573.638 2.145.767.767.174 2.319.122 3.307-.11.495-.116.925-.252.955-.301s.153-.09.272-.09c.293 0 1.642-.779 2.043-1.179a10.81 10.81 0 0 1 .764-.673c.509-.404 1.271-1.21 1.271-1.344 0-.05.211-.354.47-.675s.554-.726.657-.9.215-.317.248-.317.106.187.162.416c.593 2.417 1.908 4.215 3.528 4.825.977.368 1.44.452 2.471.447.715-.003 1.122-.063 1.762-.259l1.077-.314c.29-.07 1.014-.5 1.761-1.046.69-.504 2.649-2.472 2.836-2.85.079-.159.22-.366.312-.46s.314-.38.492-.636l.324-.466.023.489c.082 1.73.361 2.988.889 4.012.354.686.479.813 1.082 1.098.919.435 2.49.403 3.563-.071.564-.249.681-.44.992-1.62a69.28 69.28 0 0 1 .601-2.098l.547-1.81c.112-.377.262-.817.335-.979s.225-.536.34-.832.447-1.071.738-1.723.531-1.232.531-1.291c0-.123.88-1.834 1.571-3.054.259-.457.518-.956.575-1.107.119-.314 1.694-2.736 1.975-3.037.102-.109.185-.237.185-.284 0-.147 1.132-1.568 1.654-2.076.274-.267.502-.531.505-.587s.282-.338.618-.627c.878-.753 1.667-.987 2.106-.625s.355 1.911-.286 5.064l-.497 2.446-.487 2.3c-.736 3.375-.87 6.076-.393 7.906.48 1.841 1.491 3.365 2.553 3.846.243.11.514.239.603.286.728.386 2.812.523 3.753.248 1.282-.375 2.481-.955 2.838-1.372.054-.063.528-.479 1.053-.924s.954-.844.954-.886.417-.596.927-1.23 1.064-1.421 1.231-1.749.361-.662.431-.743c.191-.222 1.688-3.047 1.763-3.327.109-.407 1.072-2.668 1.099-2.579.013.046.116.656.229 1.356.28 1.738.834 4.414 1.136 5.48.339 1.199 1.047 2.905 1.512 3.643.211.335.384.651.384.702s.218.331.485.623c1.022 1.118 2.346 1.446 3.645.903.34-.142.705-.284.813-.315.248-.072 1.222-.683 1.427-.894a14.88 14.88 0 0 1 .829-.698 18.89 18.89 0 0 0 1.509-1.413l1.398-1.459c.31-.321.563-.621.563-.667 0-.09.793-1.098 1.083-1.375.246-.236 1.07-1.402 1.07-1.514 0-.051.147-.265.327-.477.349-.411 1.827-2.627 1.827-2.739 0-.037.359-.665.798-1.395s1.012-1.784 1.273-2.342.518-.987.571-.954c.191.118 2.315.061 2.987-.08.868-.182 2.12-.663 2.722-1.044.255-.162.481-.294.501-.294s-.023.209-.095.465l-.382 1.346c-.756 2.663-.986 4.183-.966 6.41.017 1.972.248 3.552.707 4.831l.405 1.138c.144.411.385.888.527 1.041a16.48 16.48 0 0 1 .495.614c.625.802 1.322 1.342 2.168 1.679 1.474.587 2.549.701 4.084.433 1.268-.221 2.857-.862 3.473-1.401l1.137-.994c.461-.402.954-.909 1.097-1.125a40.92 40.92 0 0 1 .896-1.256l.636-.862.281.911.365 1.232c.16.617 1.085 1.855 1.919 2.567.39.333 1.329.741 2.153.936.914.216 2.245.136 3.42-.205.485-.141.923-.297.974-.347s.187-.092.302-.092c.219 0 1.75-.875 1.941-1.109.061-.074.466-.425.901-.78s.919-.834 1.076-1.066.516-.732.798-1.112a9.49 9.49 0 0 0 .861-1.468c.192-.427.396-.862.455-.966.103-.184.214-.863.341-2.084.068-.655-.097-1.687-.328-2.046-.153-.238-.579-.351-1.005-.266-.306.061-.374.191-.844 1.6-.585 1.755-2.2 4.416-3.197 5.268-1.488 1.27-2.541 1.32-3.118.149-.212-.431-.236-.622-.265-2.071-.024-1.258.013-1.89.179-2.981a67.45 67.45 0 0 1 1.013-5.11c1.048-4.362 1.578-6.296 2.462-8.987.58-1.766.635-2.005.635-2.765 0-1.007-.139-1.325-.712-1.623-.317-.165-.633-.225-1.349-.256-1.135-.05-1.819.106-2.784.633-.803.439-2.145 1.721-2.8 2.674-.24.35-.48.628-.532.619s-.167-.3-.256-.645c-.223-.868-.466-1.306-1.076-1.936-1.126-1.163-2.076-1.554-3.949-1.628-1.036-.041-1.29-.017-2.153.206-2.402.618-4.945 2.48-6.907 5.057-.742.975-2.216 2.484-2.832 2.899a13.42 13.42 0 0 1-2.414 1.215c-.623.223-2.369.36-2.743.216l-.215-.082.337-.775c.185-.426.337-.835.337-.909s.154-.577.343-1.118c.893-2.565 1.274-4.726 1.195-6.787-.058-1.525-.187-2.072-.732-3.116-.782-1.495-2.014-2.209-3.825-2.215-1.846-.006-3.733.993-4.887 2.588-.196.271-.392.518-.436.549-.076.054-.296.613-.821 2.082-.743 2.079-.639 4.772.271 7.011.531 1.306.576 1.388 1.157 2.093.828 1.005 1.432 1.547 2.182 1.958.363.199.661.386.661.416s-.306.663-.68 1.407l-.766 1.531c-.415.856-1.104 2.05-1.749 3.031-.288.439-.524.836-.524.882 0 .084-.665 1.115-.778 1.207s-1.375 1.765-1.375 1.826c0 .14-1.36 1.441-1.841 1.761-.577.384-.84.386-1.203.009-.332-.346-.763-1.342-.966-2.236-.328-1.445-.736-5.219-.839-7.768-.035-.861-.081-1.676-.102-1.81s-.04-1.742-.041-3.572c0-3.17.048-4.099.303-5.693.264-1.65-.245-2.05-2.506-1.967-1.059.039-1.24.073-1.837.348-.908.418-1.169.621-1.774 1.379-1.124 1.408-1.517 2.647-1.774 5.591l-.236 2.707c-.15 1.725-.754 3.781-1.723 5.869-.24.517-.437 1.023-.437 1.124s-.035.183-.078.183-.179.209-.303.465a13.39 13.39 0 0 1-1.351 2.177c-.231.296-.42.585-.42.643 0 .276-2.098 2.224-2.744 2.549-1.342.674-2.112.23-2.336-1.347-.223-1.568.125-3.912 1.325-8.93.828-3.462 1.019-4.588 1.083-6.373.08-2.264-.206-3.541-1.054-4.693-.589-.801-.841-1.022-1.535-1.349-.584-.275-.78-.315-1.688-.347s-1.111-.007-1.752.217c-.656.23-1.943.868-2.065 1.025-.101.129-1.169.894-1.25.894-.046 0-.499.425-1.007.945l-1.285 1.283c-.199.186-.484.52-.634.743-.319.474-.915 1.243-1.071 1.384-.179.161-.902 1.163-1.139 1.578a36.27 36.27 0 0 1-.863 1.362l-.979 1.501c-.395.617-.486.485-.255-.367.709-2.61.995-6.12.622-7.657-.166-.684-.677-1.653-1.063-2.014-.89-.832-2.805-.886-4.377-.124-.311.151-.683.413-.826.584-.249.296-.26.357-.26 1.454 0 2.207-.56 5.647-1.333 8.185-.305 1.003-1.166 3.51-1.628 4.746-.257.687-1.513 3.294-1.752 3.636-.1.143-.181.312-.181.376 0 .108-1.026 1.75-1.162 1.859-.168.135-.991 1.168-.991 1.244 0 .187-.675.725-1.517 1.208-.694.399-1 .517-1.442.557-.548.05-.57.042-.939-.33-.344-.346-.39-.455-.505-1.2-.126-.816-.112-1.368.093-3.779.143-1.681.961-5.509 1.861-8.716.163-.58.296-1.15.296-1.266 0-.242.219-.98 1.193-4.011.825-2.567.951-3.184.773-3.778-.248-.829-.938-1.248-2.162-1.312-2.082-.11-3.951 1.008-5.454 3.261-.299.448-.577.778-.62.734s-.124-.34-.182-.657c-.242-1.327-1.588-2.762-3.091-3.297-.44-.156-.908-.221-1.864-.259-1.516-.06-2.418.123-3.706.749-.84.408-2.042 1.149-2.097 1.292-.018.047-.086.086-.151.086-.141 0-2.018 1.635-2.018 1.758 0 .047-.158.232-.351.411-.346.322-1.655 1.996-1.86 2.379-.058.109-.383.677-.721 1.262-.749 1.295-1.043 1.94-1.521 3.339-.376 1.099-.555 1.516-1.479 3.453-.29.607-.527 1.14-.527 1.184 0 .077-.389.785-1.066 1.94s-1.96 3.031-2.47 3.613a33.75 33.75 0 0 0-.998 1.204c-.259.332-.777.853-1.15 1.158s-.678.587-.678.628c0 .096-1.752 1.45-1.876 1.45-.052 0-.235.105-.406.234-.56.421-2.454 1.307-3.498 1.636l-1.022.323-2.3.001c-1.935.001-2.409-.028-2.985-.181-.377-.1-.751-.216-.832-.257a63.5 63.5 0 0 0-.979-.46 7.89 7.89 0 0 1-1.388-.841c-.306-.25-.594-.455-.639-.455-.13 0-1.15-1.087-1.377-1.468-.112-.188-.285-.431-.384-.538-.485-.526-1.692-2.776-1.692-3.154 0-.106-.091-.452-.202-.77-.738-2.118-1.104-4.719-1.106-7.868 0-3.092.197-4.524 1.16-8.367.273-1.089.919-2.841 1.497-4.061l.801-1.712c.351-.769 1.039-1.921 1.544-2.586.222-.292.504-.728.628-.968s.338-.558.477-.707.576-.66.97-1.136c.839-1.012 2.817-2.961 3.381-3.332a44.68 44.68 0 0 0 1.223-.861c.967-.702 2.056-1.322 2.321-1.322.102 0 .227-.043.279-.094.221-.221 2.287-.802 3.221-.906.811-.09 1.138-.082 1.88.043.494.084 1.023.215 1.175.293 1.209.613 1.547.835 1.892 1.237.214.25.39.494.39.542s.13.361.287.695c.806 1.705.785 4.785-.046 6.83-.132.325-.24.658-.24.74s-.314.778-.697 1.547c-.76 1.525-.893 2.056-.639 2.548.438.846 2.197.747 3.778-.213.313-.19.601-.345.64-.345.165 0 .84-.626 1.379-1.28.319-.387.651-.775.737-.862.343-.346.971-1.578 1.253-2.458.457-1.426.601-2.27.604-3.538 0-1.293-.11-2.055-.444-3.007-.125-.357-.254-.765-.287-.908-.116-.508-1.923-2.728-2.487-3.054-.105-.061-.626-.373-1.158-.694-1.182-.714-2.681-1.3-3.643-1.425a30.91 30.91 0 0 1-1.37-.214c-1.023-.189-4.338-.161-5.74.05-1.803.27-2.157.352-3.475.803-2.2.752-4.589 1.945-6.142 3.068-.363.263-.793.545-.954.627s-.453.297-.647.478-.701.623-1.126.983l-.968.836c-.409.378-2.235 2.375-2.387 2.61-.2.311-.995 1.348-1.132 1.477-.23.218-.632.821-.981 1.468-.203.377-.402.707-.442.734-.165.109-1.456 2.539-1.664 3.131a12.05 12.05 0 0 1-.439 1.076c-.586 1.194-1.563 4.334-1.712 5.502a44.01 44.01 0 0 1-.234 1.544c-.299 1.741-.385 3.279-.323 5.8.033 1.358.123 2.887.199 3.399l.25 1.664a19.56 19.56 0 0 0 1.775 5.627c.266.538.484 1.024.483 1.079 0 .171.793 1.348 1.659 2.459.99 1.27 2.819 2.886 3.87 3.421.377.192.751.408.832.48.148.132.575.331 1.773.825 2.485 1.025 6.487 1.37 9.727.84zm24.536-8.129c-.526-.144-1.12-.519-1.389-.877-.157-.21-.299-.554-.59-1.438-.71-2.153-.392-5.931.806-9.571.772-2.344 2.405-5.503 3.212-6.214a4.44 4.44 0 0 0 .499-.574c.319-.436 1.215-1.159 1.62-1.308 1.028-.377 1.679-.403 2.399-.097.3.127.419.274.708.871.572 1.181.687 1.779.687 3.555 0 3.168-1.147 8.008-2.534 10.694-.131.254-.389.791-.574 1.195-.629 1.375-2.092 3.096-3.006 3.536-.705.34-1.202.401-1.838.227zm90.544.011c-.894-.284-1.716-1.114-1.898-1.915-.043-.188-.17-.695-.284-1.125-.295-1.125-.298-3.28-.01-4.893l.309-1.761c.172-1.054 1.552-4.755 2.245-6.018.358-.652 1.159-1.853 1.495-2.241.226-.26.531-.631.68-.824.393-.512 1.462-1.237 2.055-1.395 1.63-.434 2.468.129 3.069 2.063.153.491.182.909.182 2.544-.001 2.138-.122 3.027-.737 5.382-.168.646-.342 1.375-.386 1.62-.111.618-1.052 2.978-1.653 4.145-.275.534-.5 1.008-.5 1.055s-.252.447-.559.889c-1.375 1.977-2.804 2.859-4.012 2.475zm-16.501-17.109c-.415-.625-.788-1.521-1.07-2.568-.28-1.04-.308-3.395-.052-4.33.22-.803.684-1.782.97-2.048.464-.431 1.249-.371 1.639.126.446.566.416 3.649-.056 5.811-.223 1.021-.973 3.523-1.056 3.523-.019 0-.188-.232-.376-.515z" fill="url(#canvaGradient)" transform="translate(1185.956 -216.543)"/></svg>
