<svg xmlns="http://www.w3.org/2000/svg" width="161.417" height="273.424" viewBox="0 0 19.366 32.811"><path id="figmaOne" d="M1.681 20a4 4 0 0 1 4-4h4v4a4 4 0 1 1-8 0z" fill="#24cb71"/><path id="figmaTwo" d="M9.681 0v8h4a4 4 0 1 0 0-8z" fill="#ff7237"/><path d="M13.648 16a4 4 0 1 0 0-8 4 4 0 1 0 0 8z" fill="#00b6ff"/><path d="M1.681 4a4 4 0 0 0 4 4h4V0h-4a4 4 0 0 0-4 4z" fill="#ff3737"/><path id="figmaThree" d="M1.681 12a4 4 0 0 0 4 4h4V8h-4a4 4 0 0 0-4 4z" fill="#874fff"/><path d="M17.456 31.469c-.266 0-.504-.052-.716-.155a1.33 1.33 0 0 1-.496-.415 1.09 1.09 0 0 1-.179-.618c0-.304.098-.551.293-.74s.475-.32.838-.39l.952-.195c.19-.038.32-.098.39-.179s.106-.201.106-.358l.098.952-1.367.293c-.184.038-.328.106-.431.203s-.146.233-.146.407.068.323.203.431c.141.108.331.163.569.163a1.12 1.12 0 0 0 .537-.13.96.96 0 0 0 .39-.358c.098-.157.146-.336.146-.537v-1.424a.54.54 0 0 0-.212-.456c-.136-.114-.323-.171-.561-.171-.304 0-.537.076-.7.228s-.258.366-.285.643l-.716-.098c.027-.287.114-.534.26-.74a1.43 1.43 0 0 1 .586-.488c.244-.114.534-.171.871-.171.477 0 .843.122 1.098.366s.382.559.382.944v2.872h-.708v-.529c-.071.179-.214.334-.431.464-.212.125-.469.187-.773.187zm-7.16-.122v-4.06h.708v.456c.054-.157.174-.293.358-.407s.399-.171.643-.171a1.42 1.42 0 0 1 .659.155c.201.103.331.258.39.464.071-.19.201-.339.39-.447a1.27 1.27 0 0 1 .651-.171c.412 0 .727.119.944.358s.325.586.325 1.041v2.782h-.724v-2.685c0-.271-.06-.475-.179-.61-.114-.141-.282-.212-.504-.212a.68.68 0 0 0-.569.26c-.13.168-.195.415-.195.74v2.506h-.724v-2.685c0-.271-.06-.475-.179-.61-.114-.141-.282-.212-.504-.212a.68.68 0 0 0-.569.26c-.13.168-.195.415-.195.74v2.506zm-2.768 1.464c-.504 0-.914-.117-1.228-.35s-.515-.559-.602-.976l.708-.155a1.02 1.02 0 0 0 .382.618c.195.152.442.228.74.228.358 0 .626-.092.805-.277.184-.179.277-.447.277-.805v-.643c-.081.201-.233.363-.456.488a1.44 1.44 0 0 1-.732.187c-.358 0-.673-.081-.944-.244s-.483-.401-.635-.7-.228-.643-.228-1.033c0-.396.076-.743.228-1.041s.361-.529.626-.692c.271-.168.588-.252.952-.252.271 0 .518.062.74.187.228.119.382.268.464.447v-.513h.708v3.807c0 .358-.071.664-.212.919a1.4 1.4 0 0 1-.618.594c-.266.136-.591.203-.976.203zm-.016-2.327a1.03 1.03 0 0 0 .83-.366c.212-.244.317-.567.317-.968 0-.407-.106-.732-.317-.976s-.488-.366-.83-.366-.626.122-.838.366c-.206.244-.309.569-.309.976 0 .401.106.724.317.968s.488.366.83.366zm-3.357.863v-4.06h.724v4.06zm-.008-4.58v-1.156h.74v1.155zm-4.151 4.58v-5.736h.765v5.736zm.155-2.424v-.692h3.116v.692zm0-2.612v-.7h3.417v.7z" fill="#fff"/></svg>
