<svg xmlns="http://www.w3.org/2000/svg" width="226.591" height="264.553" viewbox="0 0 226.591 264.553" fill="none"><path fill="#fff" d="M211.489 264.551q-4.632 0-8.376-2.157-3.681-2.157-5.774-5.965-2.094-3.87-2.094-8.629 0-4.569 1.967-8.376 2.031-3.87 5.647-6.092 3.617-2.283 8.249-2.284 4.759 0 8.249 2.094 3.553 2.095 5.394 5.837 1.84 3.68 1.84 8.502 0 .571-.063 1.142-.064.57-.064.634h-24.239q.317 4.315 3.109 6.663 2.792 2.347 6.345 2.348 5.457 0 8.376-5.077l5.965 2.855q-2.094 3.87-5.837 6.218-3.682 2.285-8.694 2.285m7.995-20.622q-.127-1.523-1.016-3.109-.888-1.587-2.792-2.665-1.84-1.142-4.632-1.142-3.11 0-5.394 1.903-2.22 1.904-3.046 5.013zm-39.558 20.622q-5.394 0-8.947-2.475-3.49-2.538-4.949-6.345l6.218-2.665q1.079 2.601 3.11 3.934 2.094 1.333 4.568 1.333 2.602 0 4.251-.952 1.65-1.015 1.65-2.601 0-1.523-1.333-2.475-1.332-1.015-4.379-1.777l-4.315-1.015q-3.553-.825-6.155-3.046-2.538-2.285-2.538-5.901 0-4.379 3.617-6.916 3.617-2.601 8.883-2.601 4.379 0 7.741 1.84 3.427 1.84 4.949 5.33l-6.155 2.602q-.888-1.967-2.729-2.919-1.84-.952-3.998-.952-2.094 0-3.68.952-1.587.888-1.587 2.412 0 1.332 1.079 2.157 1.142.825 3.553 1.396l4.696 1.142q4.759 1.205 7.107 3.68 2.348 2.412 2.348 5.837 0 2.792-1.713 5.077-1.65 2.284-4.632 3.617-2.918 1.333-6.663 1.333m-33.392 0q-3.363 0-6.092-1.333-2.665-1.396-4.251-3.807-1.523-2.475-1.523-5.584 0-4.949 3.681-7.804 3.744-2.855 9.454-2.855 5.013 0 8.566 1.713v-1.332q0-2.855-2.285-4.696-2.22-1.904-5.394-1.904-4.822 0-7.741 3.934l-5.33-3.68q2.221-2.983 5.52-4.569 3.363-1.586 7.551-1.586 6.916 0 10.66 3.49 3.807 3.426 3.807 9.708v19.29h-6.789v-3.87h-.381q-1.523 2.157-3.871 3.553-2.348 1.333-5.584 1.333m1.142-5.774q2.348 0 4.315-1.142 2.03-1.206 3.172-3.109 1.206-1.967 1.206-4.188-3.364-1.84-7.17-1.84-3.49 0-5.457 1.523-1.967 1.523-1.967 3.87 0 2.157 1.714 3.553 1.776 1.332 4.188 1.332m-30.426 5.774q-3.426 0-6.155-1.46-2.665-1.46-3.998-3.68h-.38v4.124h-6.599v-45.432h6.98v13.643l-.38 4.378h.38q1.333-2.157 3.998-3.617 2.729-1.459 6.155-1.459 4.062 0 7.487 2.157 3.49 2.157 5.52 6.028 2.095 3.807 2.095 8.566 0 4.759-2.095 8.566-2.031 3.807-5.52 6.028-3.426 2.157-7.487 2.157m-1.205-6.409q2.475 0 4.569-1.269 2.157-1.269 3.427-3.617 1.332-2.412 1.332-5.457 0-3.046-1.332-5.394-1.269-2.412-3.427-3.681-2.094-1.269-4.569-1.269-2.475 0-4.632 1.269-2.094 1.269-3.427 3.617-1.269 2.348-1.269 5.457 0 3.109 1.269 5.457 1.332 2.348 3.427 3.617 2.157 1.269 4.632 1.269m-35.185 6.409q-4.631 0-8.376-2.157-3.681-2.157-5.774-5.965-2.094-3.87-2.094-8.629 0-4.569 1.967-8.376 2.031-3.87 5.647-6.092 3.617-2.283 8.249-2.284 4.759 0 8.249 2.094 3.553 2.095 5.394 5.837 1.84 3.68 1.84 8.502 0 .571-.064 1.142-.063.57-.063.634H71.594q.317 4.315 3.109 6.663 2.792 2.348 6.346 2.348 5.457 0 8.376-5.077l5.965 2.855q-2.094 3.87-5.837 6.218-3.681 2.285-8.694 2.285m7.995-20.622q-.127-1.523-1.015-3.109-.889-1.587-2.792-2.665-1.84-1.142-4.632-1.142-3.109 0-5.394 1.903-2.221 1.904-3.046 5.013zm-43.609-11.866h6.599v4.696h.381q1.015-2.411 3.68-3.998 2.665-1.649 5.457-1.649 2.284 0 3.744.634v7.297q-2.157-1.079-4.822-1.079-3.426 0-5.774 2.665-2.283 2.601-2.284 6.409v16.498h-6.98zm-9.962-5.33q-1.967 0-3.363-1.332-1.333-1.396-1.333-3.363 0-1.967 1.333-3.3 1.396-1.397 3.363-1.397 1.967 0 3.3 1.396 1.396 1.333 1.397 3.3.001 1.966-1.397 3.363-1.332 1.332-3.3 1.332m-3.49 5.33h6.98v31.473h-6.98zM0 218.104h27.602v6.789H7.107v13.071h18.465v6.726H7.107v18.846H.001z"/><path fill="#ff9100" d="M83.553 194.25a79.53 79.53 0 0 0 26.98 5.699 79.33 79.33 0 0 0 36.138-7.284c-13.015-5.121-24.962-12.622-35.23-22.119-6.589 10.551-16.335 18.884-27.888 23.703"/><path fill="#ffc400" d="M111.439 170.55c-23.205-21.462-37.283-52.524-36.093-86.596l.165-3.316a60.08 60.08 0 0 0-31.383.328c-6.394 11.185-9.964 23.761-10.4 36.637-1.201 34.417 19.626 64.489 49.822 76.65a60.27 60.27 0 0 0 27.889-23.703"/><path fill="#ff9100" d="M111.44 170.549a59.73 59.73 0 0 0 9.046-29.662c1.002-28.687-18.283-53.365-44.974-60.25l-.165 3.316c-1.19 34.071 12.887 65.134 36.092 86.596"/><path fill="#dd2c00" d="M117.502 0c-15.201 12.179-27.206 28.237-34.468 46.736A112.29 112.29 0 0 0 75.5 80.644c26.691 6.886 45.977 31.563 44.974 60.25a59.88 59.88 0 0 1-9.046 29.662 112.39 112.39 0 0 0 35.229 22.119c26.398-12.202 45.128-38.46 46.212-69.518.703-20.123-7.028-38.057-17.953-53.195C163.379 53.953 117.503 0 117.503 0"/></svg>
