<svg xmlns="http://www.w3.org/2000/svg" width="223.266" height="272.928" viewBox="0 0 223.266 272.928"><defs><linearGradient id="flutterA" x1="87.875" y1="436.966" x2="110.79" y2="414.048" gradientUnits="userSpaceOnUse"><stop offset="0" stop-color="#1a237e" stop-opacity=".4"/><stop offset="1" stop-color="#1a237e" stop-opacity="0"/></linearGradient><radialGradient id="flutterB" cx="8397.19" cy="3105.36" r="831.94" gradientTransform="matrix(0.29411775,0,0,0.29411775,-2463.2437,-645.61148)" gradientUnits="userSpaceOnUse"><stop offset="0" stop-color="#fff" stop-opacity=".1"/><stop offset="1" stop-color="#fff" stop-opacity="0"/></radialGradient></defs><path d="M.001 212.927h33.911v6.646H6.883v20.075h24.409v6.552H6.883v25.426H0zm41.078 0h6.966v58.658h-6.966zm18.81 55.548q-3.974-4.423-3.974-12.376v-26.29h6.96v25.231q0 5.99 2.708 8.769 2.708 2.779 7.285 2.785a10.79 10.79 0 0 0 6.262-1.88 12.75 12.75 0 0 0 4.257-4.92 14 14 0 0 0 1.52-6.392v-23.593h6.966v41.782h-6.64v-6.037h-.325a13.79 13.79 0 0 1-5.493 5.245c-2.444 1.401-5.213 2.135-8.03 2.129q-7.51-.03-11.495-4.453zm52.401 3.583a10.73 10.73 0 0 1-3.648-2.247 10.26 10.26 0 0 1-2.454-3.672c-.589-1.631-.868-3.358-.822-5.091v-24.93h-7.291v-6.309h7.291v-11.796h6.96v11.797h10.159v6.309h-10.159v23.28c0 2.365.438 4.074 1.313 5.192q1.555 1.845 4.506 1.845a8.49 8.49 0 0 0 4.589-1.395v6.8c-.798.373-1.638.648-2.501.822a17.79 17.79 0 0 1-3.234.242 13.09 13.09 0 0 1-4.707-.846zm28.785 0a10.76 10.76 0 0 1-3.642-2.247 10.27 10.27 0 0 1-2.46-3.672 13.9 13.9 0 0 1-.816-5.091v-24.93h-7.291v-6.309h7.291v-11.796h6.96v11.797h10.159v6.309h-10.159v23.28c0 2.365.438 4.074 1.307 5.192q1.561 1.845 4.512 1.845a8.46 8.46 0 0 0 4.583-1.395v6.8a10.92 10.92 0 0 1-2.495.822 17.93 17.93 0 0 1-3.24.242 13.2 13.2 0 0 1-4.707-.846zm23.552-2.028c-3.152-1.901-5.717-4.637-7.409-7.906a23.91 23.91 0 0 1-2.667-11.353 24.99 24.99 0 0 1 2.495-11.14c1.589-3.294 4.041-6.095 7.096-8.107a18.92 18.92 0 0 1 10.644-3.027 20.1 20.1 0 0 1 10.644 2.738 18.19 18.19 0 0 1 6.93 7.586 24.44 24.44 0 0 1 2.418 11.063 8.13 8.13 0 0 1-.248 2.129h-33.013c.065 2.83.858 5.595 2.3 8.03 1.251 2.082 3.048 3.782 5.198 4.914a14.05 14.05 0 0 0 6.593 1.638q8.03 0 12.37-7.533l5.913 2.868a21.02 21.02 0 0 1-7.332 8.036q-4.63 2.957-11.182 2.957a20.43 20.43 0 0 1-10.75-2.891zm22.771-23.759a13.6 13.6 0 0 0-1.478-5.245 11.24 11.24 0 0 0-4.139-4.423 12.95 12.95 0 0 0-7.096-1.803 11.76 11.76 0 0 0-8.314 3.158 15.16 15.16 0 0 0-4.464 8.314zm11.885-16.462h6.64v6.717h.325c.888-2.389 2.555-4.409 4.73-5.736a13.3 13.3 0 0 1 7.374-2.3 12.21 12.21 0 0 1 4.914.905v7.456a13.05 13.05 0 0 0-5.913-1.307 9.74 9.74 0 0 0-5.57 1.721 12.49 12.49 0 0 0-4.021 4.636c-1.009 1.941-1.529 4.098-1.514 6.286v23.404h-6.96v-41.782z" fill="#fff"/><g transform="translate(28.893 -254.095)"><path d="M163.511 346.413H101.97L48.134 400.26l30.765 30.765zm-61.541-92.318h61.541L32.746 384.872 1.969 354.095z" fill="#54c5f8"/><path d="M101.97 454.095h61.541l-53.859-53.835-30.753 30.765z" fill="#01579b"/><path d="M124.534 415.225l-14.882-14.965-30.753 30.765z" fill="url(#flutterA)"/><path d="M48.13 400.252l30.764-30.764 30.764 30.764-30.764 30.764z" fill="#29b6f6"/><path d="M163.511 346.413l-53.835 53.835 53.835 53.847H101.97l-23.071-23.071h0l-30.776-30.776 53.847-53.835zm-61.541-92.318l-100 100 30.776 30.776 130.765-130.777z" fill="url(#flutterB)"/></g></svg>
