<svg xmlns="http://www.w3.org/2000/svg" width="221.416" height="275.645" viewBox="0 0 221.416 275.645" fill="#ffffff"><path d="M25.244 215.645C12.8 215.556 0 220.8 0 246.311c0 25.422 14.579 29.334 26.934 29.334 10.222 0 16.443-4.445 16.443-4.445.178-.089.268-.443.268-.621v-28.443c0-.444-.358-.89-.891-.801H24.178c-.622 0-.979.357-.979.801v9.154c0 .444.446.799.979.799h7.289v11.379s-1.69.533-6.223.533c-5.333 0-12.799-1.866-12.799-18.311s7.822-18.49 15.111-18.49c6.311 0 8.976 1.069 10.754 1.602.534.178.979-.357.979-.801l2.043-8.801c0-.267-.088-.444-.266-.711-.622-.444-4.978-2.844-15.822-2.844zm101.508 2.045c-.444 0-.799.357-.799.801v20.266H109.51v-20.178c0-.444-.357-.799-.801-.799H98.131c-.444 0-.801.355-.801.799v55.111c0 .444.445.799.801.799h10.578c.444 0 .801-.355.801-.799v-23.645h16.443l-.09 23.555a.8.8 0 0 0 .801.801h10.578c.444 0 .799-.357.799-.801v-55.109c0-.356-.355-.801-.799-.801zm58.398 0c-.444 0-.799.357-.799.801l-.09 55.109c0 .444.446.801.979.801h7.377c.355 0 .533-.09.711-.357.266-.267.445-2.576.445-2.576s4.444 4.088 12.533 4.088c9.6 0 15.109-4.888 15.109-21.865 0-17.067-8.8-19.289-14.844-19.289h-.088c-5.955 0-10.045 2.666-10.045 2.666l.09-18.576a.8.8 0 0 0-.801-.801zm-129.686 1.244a6.844 6.844 0 1 0 0 13.688c3.733 0 6.756-3.022 6.756-6.844s-3.023-6.844-6.756-6.844zm16.891 5.777c-.444 0-.711.268-.711.623v10.754l-5.779 1.424a.85.85 0 0 0-.621.799v6.756c0 .533.355.977.799.977h5.512v16.268c0 12.089 8.445 13.332 14.223 13.332 2.667 0 5.778-.799 6.311-1.066.267-.089.443-.445.443-.801v-7.467c.089-.533-.267-.89-.711-.979v.002c-.444 0-1.6.268-2.844.268-3.911 0-5.244-1.777-5.244-4.088v-15.557h7.91c.444 0 .801-.355.801-.977v-8.445c0-.444-.357-.799-.801-.799h-7.91v-10.4c0-.356-.267-.623-.711-.623zm-22.312 11.023c-.444 0-.801.443-.801.977v36.355c0 .978.623 1.334 1.512 1.334h9.512c.978 0 1.244-.445 1.244-1.334v-36.533c0-.443-.444-.798-.889-.799h-.002zm117.687 0c-.533 0-.801.355-.801.977v26.934s-2.755 1.957-6.488 1.957-4.801-1.689-4.801-5.422v-23.557a.8.8 0 0 0-.801-.801h-10.576a.8.8 0 0 0-.801.801v25.332c0 10.933 6.132 13.602 14.488 13.602 6.933 0 12.533-3.822 12.533-3.822s.266 1.955.355 2.221.445.445.801.445h6.668c.533 0 .799-.357.799-.801l.09-37.066c-.089-.356-.534-.799-1.068-.799zm35.549 8.926c3.259.106 6.049 1.972 6.049 9.828 0 9.422-1.601 11.289-6.756 11.111-3.644-.089-6.043-1.777-6.043-1.777V246.4s2.399-1.511 5.332-1.689a11.38 11.38 0 0 1 1.418-.051zM110.926 0C54.241 0 8.447 45.794 8.447 102.479c0 45.349 29.344 83.806 70.024 97.366 5.113.89 7.114-2.223 7.114-4.89l-.223-19.118c-25.786 4.669-32.455-6.224-34.456-12.004-1.111-2.89-6.224-12.004-10.448-14.449-3.557-2.001-8.669-6.669-.222-6.891 8.003-.222 13.782 7.336 15.783 10.448 9.336 15.561 24.008 11.115 29.788 8.447.889-6.669 3.557-11.115 6.446-13.782-22.896-2.668-46.682-11.338-46.682-50.684 0-11.115 4.001-20.451 10.448-27.565-1.111-2.667-4.668-13.115 1.111-27.12 0 0 8.67-2.668 28.232 10.448 8.225-2.223 16.895-3.557 25.564-3.557s17.34 1.112 25.565 3.557c19.562-13.338 28.231-10.448 28.231-10.448 5.558 14.005 2.001 24.675 1.112 27.12 6.446 7.114 10.448 16.228 10.448 27.565 0 39.346-24.008 48.016-46.905 50.684 3.779 3.112 6.891 9.336 6.891 18.895l-.222 28.232c0 2.667 2.001 6.002 7.113 4.89 40.459-13.56 69.802-52.017 69.802-97.366C213.628 45.794 167.612 0 110.926 0"/></svg>
