<svg xmlns="http://www.w3.org/2000/svg" width="223.845" height="254.305" viewbox="0 0 223.845 254.305"><g transform="matrix(1.64124 0 0 1.64124 6.91478 -8.124129)"><g opacity=".783"><path d="M53.3 10.088l-44.8 45.8c-16.9 16.9 11 15.5 21.1 21.9 4.7 3-15 6.9-11 11 3.9 4 23.6 7.7 27.5 11.6 3.9 4-7.9 8.2-4 12.3 3.8 4 12.9.2 14.5 9.3 1.2 6.7 16.7 3.4 23.7-2.4 4.3-3.7-7.5-3.7-3.6-7.7 9.8-9.9 18.5-4.5 22-13.6 2-4.9-14.8-8.4-10.3-11.5 10.7-7.5 49.7-11.3 31.7-29.3l-46.3-47.4c-5.8-5.4-15.2-5.4-20.5 0m51.3 88.2c0 2.3 17.7 3.6 16.7-.5-1.4-7-14.8-6.4-16.7.5m-75.4 12.1c4 3.5 10.1-.8 12-5.6-3.9-5.2-18.3.2-12 5.6m73.2-7.3c-5 4.6.9 9.3 5.8 6.2 1.3-.9-.1-5.1-5.8-6.2"/><path d="M53.3 11.088l-44.8 45.8c-16.9 17 11 15.6 21.1 22 4.7 3-15 6.9-11 11 3.9 4 23.6 7.7 27.5 11.6 3.9 4-7.9 8.2-4 12.3 3.8 4 12.9.2 14.5 9.3 1.2 6.7 16.7 3.4 23.7-2.4 4.3-3.7-7.5-3.7-3.6-7.7 9.8-9.9 18.5-4.5 22-13.6 2-4.9-14.8-8.4-10.3-11.5 10.6-7.5 49.7-11.3 31.7-29.3l-46.3-47.5c-5.8-5.4-15.2-5.4-20.5 0m51.3 88.3c0 2.3 17.7 3.6 16.7-.5-1.4-7-14.8-6.5-16.7.5m-75.4 12c4 3.5 10.1-.8 12-5.6-3.9-5.1-18.3.3-12 5.6m73.2-7.2c-5 4.6.9 9.3 5.8 6.2 1.3-.9-.1-5.2-5.8-6.2" opacity=".576"/></g><path d="M53.3 9L8.5 54.8c-16.9 16.9 11 15.5 21.1 21.9 4.7 3-15 6.9-11 11 3.9 4 23.6 7.7 27.5 11.6 3.9 4-7.9 8.2-4 12.3 3.8 4 12.9.2 14.5 9.3 1.2 6.7 16.7 3.4 23.7-2.4 4.3-3.7-7.5-3.7-3.6-7.7 9.8-9.9 18.5-4.5 22-13.6 2-4.9-14.8-8.4-10.3-11.5 10.6-7.5 49.7-11.3 31.7-29.3L73.8 9C68 3.6 58.6 3.6 53.3 9m51.3 88.2c0 2.3 17.7 3.6 16.7-.5-1.4-6.9-14.8-6.4-16.7.5m-75.4 12.1c4 3.5 10.1-.8 12-5.6-3.9-5.2-18.3.3-12 5.6m73.2-7.3c-5 4.6.9 9.3 5.8 6.2 1.3-.9-.1-5.1-5.8-6.2"/><defs><path id="A" d="M53.4 9.5L9.1 54.9C-7.7 71.7 19.9 70.3 29.9 76.6c4.6 3-14.8 6.9-10.9 10.9S42.3 95.1 46.2 99c3.9 4-7.8 8.2-4 12.1 3.8 4 12.8.2 14.4 9.2 1.2 6.7 16.6 3.3 23.4-2.4l-3.5-7.6c9.7-9.8 18.3-4.4 21.8-13.4 1.9-4.8-14.6-8.3-10.2-11.4 10.5-7.4 49.2-11.2 31.4-29l-45.9-47c-5.6-5.3-15-5.3-20.2 0M42.7 79.1c1 0 33.1 4.3 20.7 7.6-4.7 1.3-26.4-7.6-20.7-7.6m61.5 17.8c0 2.3 17.5 3.5 16.6-.5-1.4-6.9-14.7-6.3-16.6.5m-74.7 12c4 3.4 10-.8 11.9-5.6-3.8-5.1-18.1.3-11.9 5.6m72.6-7.2c-4.9 4.5.9 9.2 5.7 6.1 1.2-.9-.2-5.1-5.7-6.1"/></defs><clipPath id="B"><use href="#A"/></clipPath><g clip-path="url(#B)" transform="matrix(.991 0 0 .991 .605 .604)"><linearGradient id="C" x1="102.947" x2="79.3" y1="36.583" y2="62.735" gradientUnits="userSpaceOnUse"><stop offset="0" stop-color="#c0cdf9"/><stop offset="1" stop-color="#07092d" stop-opacity=".288"/></linearGradient><path fill="url(#C)" d="M53.4 9.5L9.1 54.9C-7.7 71.7 19.9 70.3 29.9 76.6c4.6 3-14.8 6.9-10.9 10.9S42.3 95.1 46.2 99c3.9 4-7.8 8.2-4 12.1 3.8 4 12.8.2 14.4 9.2 1.2 6.7 16.6 3.3 23.4-2.4l-3.5-7.6c9.7-9.8 18.3-4.4 21.8-13.4 1.9-4.8-14.6-8.3-10.2-11.4 10.5-7.4 49.2-11.2 31.4-29l-45.9-47c-5.6-5.3-15-5.3-20.2 0M42.7 79.1c1 0 33.1 4.3 20.7 7.6-4.7 1.3-26.4-7.6-20.7-7.6m61.5 17.8c0 2.3 17.5 3.5 16.6-.5-1.4-6.9-14.7-6.3-16.6.5m-74.7 12c4 3.4 10-.8 11.9-5.6-3.8-5.1-18.1.3-11.9 5.6m72.6-7.2c-4.9 4.5.9 9.2 5.7 6.1 1.2-.9-.2-5.1-5.7-6.1"/></g><linearGradient id="D" x1="33.173" x2="60.308" y1="245.076" y2="217.941" gradientTransform="matrix(1.003,0,0,-1.003,-0.413,276.586)" gradientUnits="userSpaceOnUse"><stop offset="0" stop-color="#fff"/><stop offset="1" stop-color="#fff" stop-opacity="0"/></linearGradient><path fill="url(#D)" d="M12.5 57.3C.3 69.3 21.7 66 38.1 72.4l34-59.7c-5.1-5.3-11.7-4.8-16.4 0z" opacity=".505"/><linearGradient id="E" x1="48.612" x2="81.173" y1="250.177" y2="217.616" gradientTransform="matrix(0.994,0,0,-0.994,2.709,274.439)" gradientUnits="userSpaceOnUse"><stop offset="0" stop-color="#fff"/><stop offset="1" stop-color="#fff" stop-opacity="0"/></linearGradient><path fill="url(#E)" d="M71.1 12.3l17.7 18c1.6 1.6 1.6 5 .7 6l-8.8-7.2L79 39.6l-7.3-3.9-11.8 7.5L56 27.5l-6.3 13.7-15.9-.2c-3 0-2.6-3.1.5-6.3 6.2-6.8 18.2-18.5 22-22.5 4-4 10.8-3.8 14.8.1"/><radialGradient id="F" cx="51.136" cy="13.518" r="33.212" gradientTransform="matrix(0.827,0,0,-0.553,1.123,126.746)" gradientUnits="userSpaceOnUse"><stop offset="0" stop-color="#fff"/><stop offset="1" stop-color="#fff" stop-opacity="0"/></radialGradient><path fill="url(#F)" d="M46.8 97.4s1.9 2.9 1.7 4.3c-.4 2.7-6.2 4.1-4.9 6.5s5.9 1 9.7 3.5 2.8 7.5 5.6 8.8c5.4 2.5 19.8-4.3 19-4.1-.7.1-14.1 2.9-17.1.5-3.4-2.8-4.4-4.7-7-6.4-2.4-1.5-5.7-2.2-6.5-3.4-.8-1.3 1.6-2.9 1.7-5.3.2-1.6-2.2-4.4-2.2-4.4" opacity=".217"/><g opacity=".276"><radialGradient id="G" cx="147.452" cy="14.758" r="33.212" gradientTransform="matrix(1.055,0,0,-0.706,-97.55,130.348)" gradientUnits="userSpaceOnUse"><stop offset="0" stop-color="#fff"/><stop offset="1" stop-color="#fff" stop-opacity="0"/></radialGradient><path fill="url(#G)" d="M46.8 97.4s1.9 2.9 1.7 4.3c-.4 2.7-6.2 4.1-4.9 6.5s5.9 1 9.7 3.5 2.8 7.5 5.6 8.8c5.4 2.5 19.8-4.3 19-4.1-23.8.1-19.3-6-28.5-10.1-1.3-.6-.6-2.2-.4-4.6.2-1.5-2.2-4.3-2.2-4.3"/></g><radialGradient id="H" cx="-53.737" cy="94.673" r="37.174" gradientTransform="matrix(0.526,0,0,-0.223,130.969,98.356)" gradientUnits="userSpaceOnUse"><stop offset="0" stop-color="#fff"/><stop offset="1" stop-color="#fff" stop-opacity="0"/></radialGradient><path fill="url(#H)" d="M87.2 84.9c21.3-7.8 28.2-8.9 35.2-16C114.2 75.8 97 79.5 83 85.6z" opacity=".453"/><g opacity=".512"><radialGradient id="I" cx="-45.82" cy="80.197" r="37.174" gradientTransform="matrix(0.526,0,0,-0.223,130.969,97.429)" gradientUnits="userSpaceOnUse"><stop offset="0" stop-color="#fff"/><stop offset="1" stop-color="#fff" stop-opacity="0"/></radialGradient><path fill="url(#I)" d="M87.2 83.9c35.1-12.4 29.2-12.4 35.2-16-11.2 4.3-32 4.7-39.4 16.7z"/></g><linearGradient id="J" x1="-32.429" x2="-32.293" y1="73.095" y2="66.244" gradientTransform="matrix(0.526,0,0,-0.526,130.306,130.092)" gradientUnits="userSpaceOnUse"><stop offset="0" stop-color="#fff"/><stop offset="1" stop-color="#fff" stop-opacity="0"/></linearGradient><path fill="url(#J)" d="M117.8 93.8c0 .8-2 1.4-4.6 1.4-2.5 0-4.6-.6-4.6-1.4s2-1.4 4.6-1.4 4.6.6 4.6 1.4" opacity=".286"/><g opacity=".621"><linearGradient id="K" x1="113.298" x2="113.298" y1="91.166" y2="96.643" gradientUnits="userSpaceOnUse"><stop offset="0" stop-color="#fff"/><stop offset="1" stop-color="#fff" stop-opacity="0"/></linearGradient><path fill="url(#K)" d="M119.4 95.4c0 1.7-2.8 3-6.1 3-3.4 0-6.1-1.4-6.1-3 0-1.7 2.8-3 6.1-3 3.4 0 6.1 1.4 6.1 3"/></g><radialGradient id="L" cx="-34.115" cy="13.297" r="15.297" gradientTransform="matrix(0.526,0,0,-0.078,130.969,98.77)" gradientUnits="userSpaceOnUse"><stop offset="0" stop-color="#fff"/><stop offset="1" stop-color="#fff" stop-opacity="0"/></radialGradient><path fill="url(#L)" d="M104.9 97.1c2.2 2 14.2 3 16.2-.6-3.9 2.8-12.5 1.8-16.2.6"/><linearGradient id="M" x1="-643.912" x2="-643.777" y1="327.836" y2="320.984" gradientTransform="matrix(0.203,-0.103,-0.238,-0.469,311.261,190.221)" gradientUnits="userSpaceOnUse"><stop offset="0" stop-color="#fff"/><stop offset="1" stop-color="#fff" stop-opacity="0"/></linearGradient><path fill="url(#M)" d="M104.9 103.8c.4.9.2 1.9-.6 2.3s-1.8 0-2.2-.8c-.4-.9-.2-1.9.6-2.3.8-.5 1.8-.1 2.2.8" opacity=".286"/><g opacity=".621"><linearGradient id="N" x1="-341.635" x2="-341.635" y1="195.138" y2="190.308" gradientTransform="matrix(0.273,-0.139,-0.513,-1.011,295.216,251.45)" gradientUnits="userSpaceOnUse"><stop offset="0" stop-color="#fff"/><stop offset="1" stop-color="#fff" stop-opacity="0"/></linearGradient><path fill="url(#N)" d="M105.8 104.2c.7 1.3.3 2.8-.9 3.4s-2.6 0-3.3-1.3-.3-2.8.9-3.4 2.6 0 3.3 1.3"/></g><radialGradient id="O" cx="-645.599" cy="1737.484" r="15.297" gradientTransform="matrix(0.203,-0.103,-0.035,-0.069,297.352,162.155)" gradientUnits="userSpaceOnUse"><stop offset="0" stop-color="#fff"/><stop offset="1" stop-color="#fff" stop-opacity="0"/></radialGradient><path fill="url(#O)" d="M101.9 107.8c1.7 1.4 8.3 1.5 5.8-2.4.7 3.1-3.8 2.8-5.8 2.4"/><radialGradient id="P" cx="-185.187" cy="69.66" r="24.692" gradientTransform="matrix(0.526,0,0,-0.214,130.969,105.831)" gradientUnits="userSpaceOnUse"><stop offset="0" stop-color="#fff" stop-opacity=".33"/><stop offset="1" stop-color="#fff" stop-opacity="0"/></radialGradient><path fill="url(#P)" d="M21 87.3c0-.3 22.4 6.8 26.2 10.7-3.1-3.1-19.1-10.1-21.5-10.2s-4.4-.3-4.7-.5"/><g transform="matrix(.879 -.193 .234 .696 -20.21 36.726)"><linearGradient id="Q" x1="-136.743" x2="-136.607" y1="250.438" y2="243.586" gradientTransform="matrix(0.463,0.102,0.123,-0.366,65.856,208.72)" gradientUnits="userSpaceOnUse"><stop offset="0" stop-color="#fff"/><stop offset="1" stop-color="#fff" stop-opacity="0"/></linearGradient><path fill="url(#Q)" d="M38 105.3c0 .8-2 1.4-4.6 1.4s-4.6-.6-4.6-1.4 2-1.4 4.6-1.4 4.6.6 4.6 1.4" opacity=".286"/><g opacity=".621"><linearGradient id="R" x1="60.343" x2="60.343" y1="183.942" y2="179.112" gradientTransform="matrix(0.623,0.219,0.166,-0.789,-34.636,234.581)" gradientUnits="userSpaceOnUse"><stop offset="0" stop-color="#fff"/><stop offset="1" stop-color="#fff" stop-opacity="0"/></linearGradient><path fill="url(#R)" d="M39.6 106.9c0 1.7-2.8 3-6.1 3s-6.1-1.4-6.1-3c0-1.7 2.8-3 6.1-3s6.1 1.3 6.1 3"/></g></g><g opacity=".616"><radialGradient id="S" cx="-62.572" cy="357.021" r="11.363" gradientTransform="matrix(0.624,-0.173,-0.065,-0.233,95.948,182.007)" gradientUnits="userSpaceOnUse"><stop offset="0" stop-color="#fff"/><stop offset="1" stop-color="#fff" stop-opacity="0"/></radialGradient><path fill="url(#S)" d="M28.2 106.3s1.2 3.2 4.5 3.4c3.4.2 7.2-4 7.5-5.5-.6 1.3-3.8 5.2-7.9 5.1-2.4 0-4.1-3-4.1-3"/></g><radialGradient id="T" cx="193.011" cy="256.754" r="59.425" gradientTransform="matrix(1.712,0,0,-1.685,-261.607,451.789)" gradientUnits="userSpaceOnUse"><stop offset="0" stop-color="#fff"/><stop offset="1" stop-color="#fff" stop-opacity="0"/></radialGradient><path fill="none" stroke="url(#T)" stroke-width=".488" d="m 63.4,6.5 c -3.4,0 -6.7,1.2 -9,3.6 L 9.7,55.9 C 5.6,60 4.6,62.7 4.9,64.2 5,65 5.4,65.6 6.2,66.3 c 0.8,0.7 2,1.4 3.4,2 2.9,1.2 6.7,2.2 10.5,3.2 3.8,1 7.5,2.1 10.3,3.9 0.4,0.3 0.8,0.6 1.1,1.1 0.3,0.5 0.4,1.1 0.3,1.7 -0.2,1.1 -0.9,1.7 -1.6,2.2 -1.4,1.1 -3.3,1.9 -5.2,2.8 -1.9,0.9 -3.8,1.9 -4.8,2.6 -0.5,0.4 -0.7,0.7 -0.6,0.7 0,0 -0.1,-0.3 0.1,-0.1 0.6,0.6 2.5,1.7 4.9,2.6 2.4,0.9 5.3,1.9 8.2,2.8 2.9,1 5.9,1.9 8.4,2.9 2.5,1 4.6,1.9 5.9,3.3 0.7,0.7 1.2,1.6 1.3,2.4 0.1,0.9 -0.1,1.7 -0.5,2.4 -0.7,1.4 -1.8,2.5 -2.7,3.5 -1,1 -1.9,2 -2.2,2.7 -0.2,0.3 -0.2,0.5 -0.2,0.7 0,0.1 0,0.3 0.3,0.6 1.3,1.4 4.1,1.6 7.3,2.3 1.6,0.4 3.3,0.9 4.7,2.2 1.4,1.3 2.5,3.1 3,5.7 0.2,1.1 0.8,1.6 2.1,2 1.4,0.4 3.5,0.5 5.8,0.2 4.6,-0.7 10.1,-2.9 13.2,-5.5 l 0.2,-0.2 q -0.3,-0.3 -1.5,-0.9 c -1,-0.5 -2.1,-0.9 -3,-2 -0.4,-0.6 -0.7,-1.4 -0.6,-2.3 0.1,-0.9 0.6,-1.6 1.2,-2.2 5.2,-5.2 10.2,-6.5 14,-7.5 1.9,-0.5 3.5,-1 4.7,-1.7 1.2,-0.8 2.2,-1.8 3,-3.8 0.1,-0.2 0.1,-0.3 0,-0.5 -0.1,-0.3 -0.4,-0.7 -0.9,-1.1 -1,-0.9 -2.7,-1.8 -4.4,-2.8 -1.7,-0.9 -3.3,-1.8 -4.5,-2.9 -0.6,-0.6 -1.2,-1.2 -1.3,-2.3 -0.1,-1.1 0.6,-2 1.4,-2.6 3,-2.1 7.5,-3.7 12.4,-5.4 4.9,-1.7 10.2,-3.5 14.4,-5.5 4.3,-2 7.4,-4.3 8.4,-6.6 0.5,-1.2 0.6,-2.3 0.1,-3.9 -0.5,-1.6 -1.7,-3.4 -3.9,-5.5 L 72.7,10.2 C 70.1,7.7 66.7,6.5 63.4,6.5 Z m 49.8,86.9 c -2.9,0.1 -5.5,1.4 -6.6,3.5 0.3,0.1 0.6,0.3 1.1,0.4 1.5,0.3 3.6,0.6 5.6,0.6 2,0 4.1,-0.1 5.4,-0.5 0.5,-0.2 0.8,-0.3 1,-0.4 -0.3,-1.2 -0.9,-2 -2.1,-2.6 -1.1,-0.8 -2.8,-1.1 -4.4,-1 z m -76.5,9.8 c -2.3,-0.2 -5.1,0.7 -6.5,1.9 -0.7,0.6 -1,1.1 -1,1.4 0,0.3 0.1,0.8 1,1.6 1.5,1.3 3.1,1.1 5,0.1 1.6,-0.9 3,-2.5 3.9,-4.2 -0.6,-0.4 -1.4,-0.7 -2.4,-0.8 z m 66.2,0.7 c -0.5,0.6 -0.7,1.2 -0.8,1.6 0,0.6 0.1,1 0.5,1.4 0.8,0.8 2.5,1.1 4.3,0.1 0,-0.2 -0.1,-0.5 -0.4,-0.9 -0.4,-0.8 -1.7,-1.7 -3.6,-2.2 z"/><g opacity=".325"><linearGradient id="U" x1="40.258" x2="70.79" y1="38.673" y2="154.146" gradientUnits="userSpaceOnUse"><stop offset="0" stop-color="#fff"/><stop offset="1" stop-color="#fff" stop-opacity="0"/></linearGradient><path fill="url(#U)" d="M38.8 78.2c-2.7.8-11.4 4.1-10.2 6.6 1.2 2.4 21.5 3.4 24.6 10.6 1.4 3.1-3.1 5.5-2 8.7.9 2.5 7.6 8.7 11.9 11.7 3.4 2.3 7.8-1.9 6-5.3-2.8-5.5 9.9-12.2 15.6-15.3 3.3-1.8-6.9-10.6-6.9-10.6z"/></g><linearGradient id="V" x1="13.153" x2="9.253" y1="197.768" y2="188.832" gradientTransform="matrix(0.88,0,0,-0.88,42.035,252.063)" gradientUnits="userSpaceOnUse"><stop offset="0" stop-color="#eeeeec"/><stop offset="1" stop-color="#eeeeec" stop-opacity="0"/></linearGradient><path fill="url(#V)" d="M39.8 80.7c2.4 1.8 7.2.7 10.1 2 6.9 3.1 15.4 6.6 13.8.4L62 84.6v-2.8l-4.1 1s-3.2-2.5-4.6-3.4c-.3-.2-1.9 1.4-1.9 1.4l-.3-1.7c-2-.2-4-.3-5.8-.3-4.2.1-7 .7-5.5 1.9"/><g opacity=".478"><radialGradient id="W" cx="26.356" cy="55.589" r="24.385" gradientTransform="matrix(0.656,0,0,-0.834,66.991,147.128)" gradientUnits="userSpaceOnUse"><stop offset="0" stop-color="#fff"/><stop offset="1" stop-color="#fff" stop-opacity="0"/></radialGradient><path fill="url(#W)" d="M85.1 86.3c-.9 3.4 11.5 8.1 10.5 10.5-2 5.2-13.2 1.7-21.8 12.6-1.2 1.6 1.7 7.2 1.3 6.5s-3.4-5.3-2.6-7.6c2.4-7.1 26-9.8 21.7-13.2-2.5-1.9-11.4-7.3-9.1-8.8"/></g><path fill="#fff" d="M113 93.4c0 .3-.6.6-1.4.6s-1.4-.3-1.4-.6.6-.6 1.4-.6 1.4.3 1.4.6m-9.1 10.4c0 .3-.4.6-.9.6s-.9-.3-.9-.6.4-.6.9-.6.9.3.9.6m-68.7-.5c0 .3-.7.6-1.5.6s-1.5-.3-1.5-.6.7-.6 1.5-.6 1.5.3 1.5.6" opacity=".586"/><linearGradient id="X" x1="27.27" x2="32.079" y1="80.448" y2="86.501" gradientUnits="userSpaceOnUse"><stop offset="0" stop-color="#fff"/><stop offset="1" stop-color="#fff" stop-opacity="0"/></linearGradient><path fill="url(#X)" d="M34.3 78.5c-7.8 4.8-19.8 6.5-6.6 9.7-1.6-3.5 3.4-3.1 6.6-9.7" opacity=".251"/><g opacity=".363"><linearGradient id="Y" x1="-115.448" x2="-144.875" y1="55.254" y2="134.487" gradientTransform="matrix(0.485,0,0,-0.485,149.184,125.791)" gradientUnits="userSpaceOnUse"><stop offset="0" stop-color="#729fcf"/><stop offset="1" stop-color="#729fcf" stop-opacity="0"/></linearGradient><path fill="url(#Y)" d="M61.9 122.2s12-1.1 14.7-4.6c1.6-2-6.4-4.4-4.7-6.4 6.5-7.4 12-7.1 19.6-10.3 7.6-3.1 4.8-4.6 2.3-6-4.2-2.3-13.6-4.8-10.5-10.4s30.4-13.4 30.4-13.4c8.3-2.8 7.2-7.9 3.2-12.2L92.6 34.8s1.2 23-3.7 32.9C82.8 79.8 50.5 93.4 64 94.9c4.8.5 7.1 2.2 9 5.8 4 7.6-11.1 21.5-11.1 21.5"/></g></g><path d="M8.921 247.633v-20.269c0-4.195.859-4.448 4.397-4.6.303-.303.303-1.365 0-1.668l-6.571.101c-1.719 0-4.145-.051-6.521-.101-.303.303-.303 1.365 0 1.668 3.538.152 4.397.405 4.397 4.6v20.269c0 4.195-.859 4.448-4.397 4.599-.303.303-.303 1.365 0 1.668l6.571-.101 6.52.101c.303-.303.303-1.365 0-1.668-3.538-.151-4.397-.404-4.397-4.599zm32.848-19.713v16.529c0 .961 0 1.517-.354 1.517-.202 0-.96-.91-2.426-2.781l-17.337-21.987-6.824-.101c-.303.303-.303 1.365 0 1.668 2.173.152 3.69 1.921 3.993 3.235v21.078c0 4.499-.859 4.802-4.398 5.155-.303.303-.303 1.365 0 1.668l5.661-.101 5.611.101c.303-.303.303-1.365 0-1.668-3.538-.353-4.397-.556-4.397-5.155v-15.467c0-1.719 0-2.477.405-2.477.303 0 .859.556 1.718 1.669l17.641 22.291c.556.759 1.213 1.213 2.022 1.213.707 0 1.162-.607 1.162-1.567v-24.819c0-4.499.859-4.802 4.398-5.156.303-.303.303-1.365 0-1.668l-5.661.101c-1.112 0-3.387-.051-5.611-.101-.303.303-.303 1.365 0 1.668 3.538.354 4.397.556 4.397 5.156zm16.269 19.713v-9.402c1.668.051 3.134.607 4.195 1.87l7.936 10.009c1.011 1.314 1.719 2.679 1.82 3.487 0 .152.051.303.253.303l2.729-.101 5.105.101c.303-.303.303-1.365 0-1.668-1.466-.101-2.932-.253-4.448-2.123l-11.07-13.142c-.405-.455-.657-.859-.657-1.264 0-.354.051-.707 1.769-2.477l7.431-7.633c2.325-2.477 4.347-2.679 6.369-2.831.303-.303.303-1.365 0-1.668l-4.802.101c-1.87 0-3.841-.051-5.712-.101-.303.303-.303 1.365 0 1.668 1.82.202 3.539.405 1.415 2.629l-8.34 8.896c-1.112 1.163-2.224 1.82-3.993 1.971v-8.896c0-4.195.859-4.448 4.398-4.6.303-.303.303-1.365 0-1.668l-6.571.101c-1.971 0-4.246-.051-6.521-.101-.303.303-.303 1.365 0 1.668 3.539.152 4.398.405 4.398 4.6v20.269c0 4.195-.859 4.448-4.398 4.599-.303.303-.303 1.365 0 1.668l6.571-.101 6.521.101c.303-.303.303-1.365 0-1.668-3.539-.151-4.398-.404-4.398-4.599zm41.845-25.729c-2.931-.404-2.78-1.365-7.733-1.365-5.105 0-9.604 3.387-9.604 8.745s4.347 7.784 8.795 9.452c3.083 1.213 6.823 2.629 6.823 7.532 0 4.094-2.325 6.217-6.318 6.217-4.751 0-7.784-2.123-8.896-7.177-.607-.202-1.163-.101-1.618.151.203 3.893.405 5.207 1.011 7.683 3.184 0 4.549 1.163 9.047 1.163 2.325 0 4.499-.556 6.268-1.617 2.881-1.82 4.751-4.954 4.751-8.189 0-5.358-4.094-7.734-8.239-9.25-2.983-1.163-8.037-3.033-8.037-7.329 0-2.831 2.578-5.661 5.51-5.661 4.953 0 6.52 3.134 7.531 6.47.505.101 1.163.051 1.617-.303-.151-2.426-.354-3.841-.91-6.521zm22.031 32.401c4.903 0 9.401-2.325 12.839-6.824-.253-.455-.607-.758-1.163-.758-3.589 3.943-7.026 5.509-11.727 5.509-6.824 0-11.525-7.683-11.525-15.063 0-4.347 1.112-7.987 2.982-10.261 2.527-3.083 5.459-4.499 8.088-4.499 6.975 0 9.755 4.145 11.069 8.492.607.202 1.061.051 1.668-.253-.253-2.629-.607-5.055-1.112-7.835-2.578-.253-4.853-2.275-11.069-2.275-4.297 0-7.885 1.567-10.868 4.297-3.387 3.083-5.358 8.037-5.358 13.293 0 8.795 5.307 16.175 16.175 16.175zm27.288-14.81c-1.112 0-1.466-.152-1.315-.657l5.207-13.091h.303l4.751 13.749zm-5.459 10.311l2.78-7.329c.253-.657.556-.859 1.769-.859h10.665l2.932 8.543c.556 1.769-1.365 1.921-3.741 2.072-.303.303-.303 1.365 0 1.668l6.621-.101c2.073 0 3.993.051 5.763.101.303-.303.303-1.365 0-1.668-1.971-.151-3.69-.303-4.549-2.78l-10.413-28.913c-.758.455-2.123 1.011-2.78 1.011l-11.474 27.093c-1.315 3.134-2.881 3.437-5.055 3.589-.303.303-.303 1.365 0 1.668a119.56 119.56 0 0 1 4.499-.101c2.072 0 4.599.051 6.47.101.303-.303.303-1.365 0-1.668-1.921-.101-4.297-.303-3.488-2.426zm36.235-24.01c0-1.465.758-3.235 4.397-3.235 3.488 0 6.976 1.163 6.976 7.582 0 5.459-2.629 7.683-7.532 7.683-1.263 0-3.285-.101-3.841-.253zm-4.297 1.567v20.269c0 4.195-.859 4.448-4.397 4.599-.303.303-.303 1.365 0 1.668l6.571-.101 7.279.101c.303-.303.303-1.365 0-1.668-3.943-.202-5.156-.404-5.156-4.599v-8.593c1.112.354 2.325.505 4.095.505 9.199 0 11.979-6.015 11.979-10.311 0-2.982-1.971-8.391-11.323-8.391-1.971 0-4.903.354-6.925.354-1.87 0-4.499-.051-6.521-.101-.303.303-.303 1.365 0 1.668 3.538.152 4.397.405 4.397 4.6zm35.679 8.189h-4.599v-9.099c0-2.224.607-3.235 3.336-3.235h3.791c3.791 0 4.6 2.021 5.712 5.509.607.101 1.163 0 1.668-.253-.253-2.073-1.011-6.925-1.112-7.329 0-.101-.051-.152-.202-.152-.859.152-1.264.203-2.477.203h-12.89a323.98 323.98 0 0 1-6.52-.101c-.303.303-.303 1.365 0 1.668 3.538.152 4.397.405 4.397 4.6v20.269c0 4.195-.859 4.448-4.397 4.599-.303.303-.303 1.365 0 1.668l6.571-.101h10.868c2.426 0 6.47.101 6.47.101.707-2.527 1.465-5.863 1.87-8.441-.556-.253-1.112-.404-1.769-.253-1.011 3.639-2.78 6.622-6.621 6.622h-5.863c-2.123 0-2.831-.809-2.831-3.185v-11.171h4.599c4.297 0 4.449 1.163 4.6 3.437.303.303 1.365.303 1.668 0l-.101-4.449c0-1.415.051-3.133.101-4.347-.303-.303-1.365-.303-1.668 0-.151 2.78-.303 3.437-4.6 3.437z" fill="#f9f9f9" paint-order="markers stroke fill"/></svg>
