<svg xmlns="http://www.w3.org/2000/svg" width="224.828" height="270.999" viewBox="0 0 59.486 71.701"><path d="M2.013 71.416A1189.64 1189.64 0 0 1 2 63.614v-7.788h3.261l3.488.02c1.309.112 2.366.568 3.148 1.356.677.682 1.077 1.517 1.233 2.569a7.57 7.57 0 0 1 0 1.505c-.186 1.2-.673 2.104-1.499 2.784-.623.512-1.443.866-2.253.974l-.21.031c-.039.01-.027.033.15.299a1366.677 1366.677 0 0 1 2.309 3.491l.946 1.429.733 1.117c.009.024-.145.028-1.141.028h-1.152l-.172-.271-.44-.694-.905-1.417-.433-.679-.403-.63a55.102 55.102 0 0 1-.325-.512 53.319 53.319 0 0 0-.333-.523l-.523-.821-.413-.652H5.507 3.948v6.198h-.961a26.67 26.67 0 0 1-.974-.013zm6.569-7.941c.696-.118 1.241-.375 1.679-.791a2.46 2.46 0 0 0 .452-.556c.595-.96.576-2.322-.045-3.261-.465-.704-1.218-1.141-2.173-1.261-.184-.023-.624-.028-2.386-.028h-2.16v5.945l2.228-.01 2.405-.038m46.327 8.201c-.936-.137-1.541-.585-1.837-1.361a3.22 3.22 0 0 1-.189-.832c-.013-.105-.02-1.565-.02-3.979v-3.813h-1.869v-1.556h1.869v-3.089h1.791v3.089h2.282v1.554h-2.284l.006 3.665.038 3.793c.177.716.585 1.028 1.253.961.341-.035.667-.171.9-.379.059-.053.111-.092.116-.088s.101.247.215.538l.257.657.05.127-.044.048c-.024.026-.093.085-.152.13a2.75 2.75 0 0 1-1.24.515 5.53 5.53 0 0 1-1.141.019m-9.515.01c-1.085-.089-2.173-.508-2.959-1.139-1.071-.859-1.78-2.082-2.046-3.529-.142-.774-.142-1.735 0-2.509.182-.992.554-1.834 1.156-2.622a7.01 7.01 0 0 1 .968-.947c.733-.546 1.547-.884 2.46-1.02a6.52 6.52 0 0 1 2.298.07 4.49 4.49 0 0 1 2.31 1.28c.225.23.471.52.462.548-.006.018-.19.189-.584.541l-.365.33-.21.182a2.08 2.08 0 0 1-.16-.185 3.29 3.29 0 0 0-1.992-1.196c-.202-.038-.298-.044-.715-.045l-.682.034c-.792.137-1.402.438-1.942.959-.662.639-1.056 1.448-1.226 2.519-.029.183-.036.339-.035.817.001.52.006.621.044.846.183 1.065.563 1.843 1.213 2.479a3.17 3.17 0 0 0 .861.618c.481.242.907.356 1.484.395.84.058 1.647-.15 2.248-.578a6.84 6.84 0 0 0 .287-.232c.174-.147.279-.258.565-.594l.052-.062.135.128.252.235.245.227.33.304.202.201c0 .025-.329.401-.504.576-.82.822-1.788 1.249-3.097 1.368-.251.023-.779.023-1.055 0zm-13.831.01a4.62 4.62 0 0 1-1.514-.421 2.97 2.97 0 0 1-.441-.252 3.502 3.502 0 0 1-1.508-2.113 4.66 4.66 0 0 1-.059-1.628 4.04 4.04 0 0 1 .354-1.101c.078-.153.312-.496.443-.647.428-.495 1.078-.895 1.792-1.102.44-.128.821-.18 1.316-.18 1.165 0 2.131.271 2.933.822a3.51 3.51 0 0 1 .576.475l.192.188v-1.111c0-1.203-.005-1.277-.111-1.609a2.02 2.02 0 0 0-.543-.863c-.196-.189-.352-.297-.604-.422-.469-.231-.958-.333-1.605-.333a4.28 4.28 0 0 0-2.794.962 6.84 6.84 0 0 0-.389.354l-.258.236a270.607 270.607 0 0 1-.747-1.108l-.077-.116.129-.12.687-.593c.88-.659 1.881-1.029 3.056-1.13a8.43 8.43 0 0 1 1.82.068c1.03.17 1.919.637 2.433 1.278.384.479.607 1.006.728 1.722.033.193.035.488.041 4.343l.006 4.137h-1.772v-1.266l-.221.215c-.723.703-1.628 1.125-2.737 1.277-.212.029-.963.053-1.124.036m1.751-1.323c.562-.099 1.116-.308 1.503-.566l.211-.141a4.43 4.43 0 0 0 .537-.524l.081-.105v-1.08-1.08l-.148-.164c-.366-.405-.784-.689-1.337-.909a5.14 5.14 0 0 0-1.004-.244c-.321-.039-.821-.039-1.091 0-.802.114-1.448.48-1.853 1.048-.321.451-.469 1.017-.413 1.582a2.2 2.2 0 0 0 .671 1.453c.41.409.903.647 1.585.756.253.04.966.026 1.259-.026zm-13.114 1.322c-1.882-.114-3.44-.965-4.403-2.408-.541-.811-.864-1.756-.97-2.843a9.1 9.1 0 0 1 .011-1.417c.146-1.222.576-2.282 1.287-3.168a7.83 7.83 0 0 1 .931-.91 5.37 5.37 0 0 1 2.623-1.06 7.65 7.65 0 0 1 1.318-.01c1.04.126 1.847.437 2.597 1.001a5.61 5.61 0 0 1 .997 1.015c.8 1.119 1.197 2.464 1.197 4.059v.401h-4.555l-4.555.028a6.58 6.58 0 0 0 .11.716c.267 1.197 1.027 2.205 2.044 2.713.615.307 1.224.432 2.007.412a4.68 4.68 0 0 0 2.027-.485c.491-.239.808-.457 1.23-.846l.118-.099a16.62 16.62 0 0 1 .429.575l.419.574-.105.095c-.484.438-.902.731-1.393.977-.691.347-1.392.55-2.204.639-.273.03-.934.051-1.161.038m3.837-6.762c0-.24-.067-.64-.161-.959-.393-1.329-1.312-2.245-2.559-2.549a4.4 4.4 0 0 0-1.835-.021c-.888.203-1.638.744-2.161 1.56a4.51 4.51 0 0 0-.653 1.93l-.013.143h7.381z" fill="#fff"/><path d="M17.501 52.889c0-.015-.16-.035-.355-.045a5.15 5.15 0 0 1-3.221-1.349c-1.967-1.834-2.797-5.541-2.301-10.272a36.78 36.78 0 0 1 .722-4.169 7.89 7.89 0 0 0 .112-.508c0-.025-.081-.064-.197-.097a31.02 31.02 0 0 1-5.671-2.272C3.607 32.577 1.576 30.75.609 28.8c-.471-.951-.667-1.872-.594-2.797.214-2.712 2.686-5.356 6.972-7.457 1.538-.754 3.048-1.335 4.971-1.913l.555-.167-.076-.314c-.616-2.536-.922-4.896-.923-7.116-.001-2.423.354-4.305 1.101-5.837.463-.948.998-1.634 1.687-2.163 2.152-1.651 5.622-1.293 9.602.99 1.813 1.04 3.764 2.507 5.482 4.121l.397.373.154-.158a40.53 40.53 0 0 1 1.833-1.647c3.127-2.608 6.153-4.213 8.766-4.65C40.865.01 41.063 0 41.803 0c.756 0 .923.01 1.213.065 1.256.242 2.28.893 3.088 1.96.963 1.273 1.533 3.01 1.785 5.445.064.616.054 3.133-.016 3.877-.151 1.619-.451 3.468-.789 4.858l-.074.303.507.15a31.65 31.65 0 0 1 5.045 1.971c2.586 1.28 4.453 2.697 5.641 4.281 1.11 1.479 1.504 3.014 1.165 4.535-.754 3.38-5.048 6.635-11.461 8.688l-.762.239c-.008 0-.001.046.015.102.041.141.298 1.329.374 1.729.645 3.386.695 6.575.141 9.05-.625 2.791-1.981 4.642-3.892 5.312-.364.128-.93.252-1.266.278-.151.012-.275.033-.275.048s-.206.027-.457.027c-.284 0-.457-.012-.457-.032s-.067-.032-.15-.032c-.375 0-1.325-.186-2.025-.395-2.731-.814-5.846-2.794-8.865-5.633l-.434-.409-.306.295c-1.522 1.469-3.678 3.103-5.381 4.079-1.403.804-2.945 1.46-4.144 1.762-.681.172-1.506.3-1.929.3-.122 0-.214.014-.214.032s-.084.032-.189.032-.189-.012-.189-.027m24.925-2.624c.738-.106 1.305-.481 1.792-1.185 1.31-1.895 1.635-5.805.842-10.137-.102-.555-.385-1.883-.406-1.904-.005-.01-.341.061-.746.148-2.15.46-4.583.824-7.087 1.06-.204.019-.205.02-.315.181a62.54 62.54 0 0 1-4.423 5.663l-.436.49.278.264c2.438 2.315 5.005 4.057 7.214 4.898 1.281.487 2.349.657 3.287.523m-23.696-.058c2.202-.407 4.752-1.752 7.391-3.898.532-.433 1.243-1.057 1.678-1.472l.26-.248-.309-.335a62.2 62.2 0 0 1-4.544-5.62l-.236-.333-.252-.022c-2.518-.215-5.211-.597-7.225-1.025-.247-.052-.468-.095-.49-.095-.048 0-.197.61-.414 1.686-.404 2.003-.581 3.926-.519 5.631.063 1.716.347 3.065.863 4.094.522 1.041 1.156 1.541 2.154 1.7.305.048 1.238.013 1.645-.062m11.477-7.872c.568-.637 1.014-1.167 1.637-1.946.674-.843 1.458-1.874 1.439-1.893-.007-.01-.374 0-.815.019a130.65 130.65 0 0 1-5.529 0l-.638-.021c-.025.013 1.345 1.727 1.991 2.49.497.586 1.527 1.749 1.55 1.749a17.32 17.32 0 0 0 .364-.402zm1.791-6.375c1.052-.032 2.613-.108 2.985-.145.234-.023.179.04.771-.879 1.682-2.608 3.27-5.386 4.537-7.934l.294-.591-.262-.528a84.79 84.79 0 0 0-3.719-6.611c-.301-.482-1.408-2.187-1.435-2.21-.007-.01-1.603-.101-2.415-.145-.413-.022-1.652-.038-2.963-.039-2.216 0-2.953.019-4.583.126l-.78.046c-.08 0-.129.061-.525.654a71.05 71.05 0 0 0-3.339 5.539c-.49.899-1.614 3.109-1.614 3.173 0 .148 1.307 2.68 2.168 4.202 1.134 2.003 3.171 5.216 3.308 5.216.03 0 .466.022.969.049a89.39 89.39 0 0 0 6.603.077m-2.71-4.276a10.99 10.99 0 0 1-.497-.074c-2.365-.415-4.201-2.456-4.351-4.836-.061-.972.096-1.839.481-2.648a4.83 4.83 0 0 1 1.009-1.461c.767-.792 1.75-1.32 2.87-1.539.401-.079 1.49-.079 1.891 0 1.119.219 2.103.747 2.87 1.539a4.82 4.82 0 0 1 1.009 1.461c.385.809.543 1.676.481 2.648-.133 2.109-1.584 3.974-3.616 4.649-.705.234-1.409.32-2.147.261m-8.261 3.749a7.266 7.266 0 0 0-.156-.244c-.695-1.035-2.576-4.291-3.222-5.578l-.079-.157-.053.126a84.54 84.54 0 0 0-.778 1.963c-.498 1.318-1.094 3.079-1.054 3.118.029.029 1.451.305 2.304.447.767.128 1.758.271 2.616.378l.483.063c.006 0-.022-.049-.061-.114m18.065-.024a60.8 60.8 0 0 0 2.661-.412c.812-.148 2.138-.423 2.167-.451.035-.034-.478-1.538-.884-2.588-.349-.904-1.022-2.539-1.062-2.579-.007-.01-.069.101-.138.239-.345.686-1.291 2.383-2.006 3.601l-1.243 2.049c-.066.095-.133.221-.118.221a71.31 71.31 0 0 0 .624-.08m-25.538-2.545a62.3 62.3 0 0 1 2.351-6.008c.097-.215.177-.404.177-.418a7.91 7.91 0 0 0-.225-.523 61.72 61.72 0 0 1-2.408-6.2l-.25-.765c-.004 0-.332.09-.729.21-4.858 1.47-8.51 3.764-9.609 6.034a2.33 2.33 0 0 0-.283 1.186c0 .466.062.724.282 1.19 1.069 2.26 4.556 4.596 9.112 6.104.464.153 1.129.358 1.178.362.009 0 .19-.526.403-1.172m34.36.561c2.967-1.038 5.38-2.336 7.017-3.775 1.119-.983 1.802-1.993 1.963-2.905.123-.692-.118-1.439-.739-2.295-.26-.359-1.182-1.273-1.639-1.625-1.748-1.346-4.067-2.509-6.792-3.404-.788-.259-1.398-.449-1.402-.438l-.201.621c-.685 2.115-1.414 3.968-2.588 6.575l-.101.224.08.158c.267.526 1.045 2.296 1.486 3.381a60.68 60.68 0 0 1 1.339 3.643l.101.318.525-.165.951-.314m-5.555-11c.627-1.543 1.487-3.961 1.447-4.065-.008-.022-.055-.046-.104-.055l-.861-.175c-1.248-.259-2.526-.479-3.688-.636l-.594-.084-.105-.019.167.264a90.73 90.73 0 0 1 3.151 5.44l.17.323.074-.165a42.93 42.93 0 0 0 .343-.827m-24.606.638a77.41 77.41 0 0 1 3.092-5.366c.101-.156.17-.288.156-.293-.048-.017-1.97.27-2.901.433-.766.134-2.162.41-2.34.462-.071.021-.077 0 .277 1.052a50.46 50.46 0 0 0 .972 2.679c.433 1.097.539 1.355.558 1.355.01 0 .094-.145.186-.323m26.881-7.659c.851-3.754.987-7.168.383-9.62-.286-1.161-.734-2.049-1.311-2.595-.457-.432-.945-.623-1.686-.657-2.04-.095-5.017 1.278-8.085 3.73-.712.569-1.995 1.698-2.279 2.006l-.074.08.437.483a60.75 60.75 0 0 1 4.399 5.528l.178.255.403.038c2.237.211 5.315.698 7.18 1.137.139.033.275.061.302.062.039 0 .072-.094.152-.446m-28.99.293c2.025-.435 4.679-.842 6.852-1.049l.41-.039.205-.28c1.673-2.291 3.132-4.099 4.549-5.636.267-.289.306-.345.272-.387a34.04 34.04 0 0 0-1.32-1.194c-2.841-2.434-5.666-4.007-7.961-4.434a6.42 6.42 0 0 0-1.599-.061c-.352.048-.746.175-.991.32a3.22 3.22 0 0 0-.82.816c-.65.971-1.03 2.401-1.143 4.302-.106 1.784.096 4.024.568 6.303.193.93.326 1.466.364 1.466a14.44 14.44 0 0 0 .615-.125m11.516-1.358a108.47 108.47 0 0 1 5.197 0c.466.019.854.027.862.019.016-.016-.364-.519-.967-1.279a52.65 52.65 0 0 0-2.098-2.485l-.379-.421-.142.158c-.944 1.05-1.478 1.671-2.161 2.512-.506.623-1.18 1.486-1.18 1.511s-.045.023.867-.015z" fill="#00d8ff"/></svg>
