<svg xmlns="http://www.w3.org/2000/svg" width="234.647" height="263.37" viewbox="0 0 234.647 263.37" fill="none"><path d="M0 245.483c.327 3.063 3.114 8.315 11.2 8.315 7.048 0 10.436-4.486 10.436-8.862 0-3.939-2.677-7.166-7.977-8.26l-3.825-.821c-1.475-.273-2.458-1.094-2.458-2.407 0-1.532 1.53-2.681 3.442-2.681 3.059 0 4.206 2.024 4.426 3.611l6.065-1.367c-.327-2.899-2.896-7.768-10.544-7.768-5.791 0-10.053 3.993-10.053 8.807 0 3.775 2.349 6.892 7.54 8.041l3.551.821c2.076.437 2.896 1.422 2.896 2.626 0 1.422-1.147 2.681-3.551 2.681-3.169 0-4.754-1.969-4.917-4.102zm44.858 7.494h6.939c-.109-.93-.273-2.79-.273-4.869v-22.044h-7.267v15.645c0 3.118-1.857 5.306-5.081 5.306-3.387 0-4.918-2.407-4.918-5.416v-15.536h-7.266v17.012c0 5.853 3.715 10.612 10.217 10.612 2.841 0 5.956-1.094 7.431-3.611 0 1.094.109 2.352.218 2.899zm21.687 10.394v-13.019c1.311 1.805 4.043 3.282 7.759 3.282 7.595 0 12.675-6.017 12.675-14.168 0-7.986-4.534-14.003-12.402-14.003-4.042 0-7.048 1.805-8.25 3.884v-3.282H59.28v37.306zm13.277-23.85c0 4.814-2.95 7.604-6.665 7.604s-6.72-2.845-6.72-7.604 3.005-7.549 6.72-7.549 6.665 2.79 6.665 7.549zm11.272 6.126c0 4.212 3.496 8.096 9.234 8.096 3.987 0 6.555-1.86 7.921-3.993 0 1.039.109 2.517.273 3.227h6.665c-.164-.93-.327-2.845-.327-4.266v-13.238c0-5.416-3.169-10.229-11.692-10.229-7.212 0-11.092 4.65-11.529 8.862l6.447 1.367c.219-2.352 1.967-4.376 5.136-4.376 3.061 0 4.536 1.587 4.536 3.501 0 .93-.491 1.696-2.022 1.915l-6.61.985c-4.48.657-8.032 3.336-8.032 8.15zm10.763 2.681c-2.349 0-3.496-1.532-3.496-3.118 0-2.079 1.475-3.118 3.333-3.391l6.065-.93v1.203c0 4.759-2.842 6.236-5.901 6.236zm27.378 4.649v-3.282c1.42 2.297 4.261 3.939 7.976 3.939 7.65 0 12.677-6.072 12.677-14.223 0-7.986-4.536-14.058-12.403-14.058-3.989 0-6.939 1.751-8.141 3.665v-15.644h-7.157v39.604zm13.385-13.512c0 4.923-2.95 7.658-6.665 7.658-3.661 0-6.72-2.79-6.72-7.658 0-4.923 3.059-7.604 6.72-7.604 3.716 0 6.665 2.681 6.665 7.604zm11.382 6.182c0 4.212 3.496 8.096 9.233 8.096 3.988 0 6.556-1.86 7.922-3.993 0 1.039.11 2.517.273 3.227h6.665c-.163-.93-.327-2.845-.327-4.266v-13.238c0-5.416-3.169-10.229-11.693-10.229-7.212 0-11.091 4.65-11.528 8.862l6.446 1.367c.219-2.352 1.967-4.376 5.136-4.376 3.061 0 4.536 1.587 4.536 3.501 0 .93-.492 1.696-2.022 1.915l-6.61.985c-4.48.657-8.032 3.336-8.032 8.15zm10.764 2.681c-2.35 0-3.497-1.532-3.497-3.118 0-2.079 1.475-3.118 3.333-3.391l6.065-.93v1.203c0 4.759-2.841 6.236-5.9 6.236zm18.033-2.845c.327 3.063 3.114 8.315 11.2 8.315 7.049 0 10.435-4.486 10.435-8.862 0-3.939-2.677-7.166-7.976-8.26l-3.825-.821c-1.475-.273-2.457-1.094-2.457-2.407 0-1.532 1.529-2.681 3.441-2.681 3.061 0 4.207 2.024 4.426 3.611l6.064-1.367c-.328-2.899-2.896-7.768-10.544-7.768-5.792 0-10.053 3.993-10.053 8.807 0 3.775 2.348 6.892 7.54 8.041l3.551.821c2.077.437 2.896 1.422 2.896 2.626 0 1.422-1.147 2.681-3.551 2.681-3.169 0-4.753-1.969-4.917-4.102zm32.672-9.026c.164-2.462 2.241-5.306 6.011-5.306 4.152 0 5.901 2.626 6.011 5.306zm12.731 7.002c-.874 2.407-2.732 4.102-6.12 4.102-3.606 0-6.611-2.571-6.775-6.126h19.231c0-.109.109-1.203.109-2.243 0-8.643-4.971-13.948-13.277-13.948-6.884 0-13.223 5.58-13.223 14.168 0 9.08 6.501 14.387 13.878 14.387 6.61 0 10.873-3.884 12.239-8.534z" fill="#fff"/><g transform="matrix(1.786792 0 0 1.786792 728.77103 -374.68733)"><use href="#sbGradC" fill="url(#sbGradA)"/><use href="#sbGradC" fill="url(#sbGradB)" fill-opacity=".2"/><path d="M-351.4 211.558c2.86-3.601 8.658-1.628 8.726 2.97l.442 67.251h-44.654c-8.191 0-12.759-9.46-7.666-15.875z" fill="#3ecf8e"/></g><defs><linearGradient id="sbGradA" x1="-342.743" y1="264.461" x2="-302.553" y2="281.317" gradientUnits="userSpaceOnUse"><stop stop-color="#249361"/><stop offset="1" stop-color="#3ecf8e"/></linearGradient><linearGradient id="sbGradB" x1="-360.561" y1="240.065" x2="-342.232" y2="274.568" gradientUnits="userSpaceOnUse"><stop/><stop offset="1" stop-opacity="0"/></linearGradient><path id="sbGradC" d="M-333.009 319.771c-2.86 3.601-8.657 1.628-8.726-2.97l-1.007-67.251h45.22c8.19 0 12.759 9.46 7.666 15.875z"/></defs></svg>
