<svg xmlns="http://www.w3.org/2000/svg" width="354.953" height="279.526" viewBox="0 0 93.915 73.958"><path d="M45.515 52.896l-.904-.06c-2.683-.171-5.288-.759-7.683-1.733a28.74 28.74 0 0 1-2.82-1.41c-1.448-.863-2.983-2.018-4.453-3.349l-2.937-2.872-4.191-3.867c-1.838-1.38-3.466-2.068-5.682-2.399-2.514-.376-4.82-.061-7.108.971-2.28 1.028-4.556 2.949-6.594 5.565-.115.148-.218.261-.228.251-.028-.028.265-1.108.53-1.952 1.397-4.447 3.535-7.979 6.353-10.496 3.389-3.025 7.667-4.668 13.064-5.017a48.63 48.63 0 0 1 4.095 0c5.405.358 9.661 1.964 13.648 5.154 1.294 1.035 2.534 2.197 4.757 4.457 2.835 2.882 4.309 4.08 6.137 4.984 1.246.616 2.539.973 4.128 1.14q5.075.533 9.399-2.83c1.174-.913 2.556-2.318 3.611-3.671.393-.504.391-.518.086.56-3.146 11.126-10.454 16.664-21.896 16.593l-1.314-.02zm21.294-26.504c-3.3-.221-6.31-.983-8.978-2.273-2.974-1.437-5.366-3.311-8.99-7.039-4.436-4.564-6.534-5.874-10.222-6.382a16 16 0 0 0-2.951-.047c-3.175.339-5.975 1.801-8.607 4.491a20.98 20.98 0 0 0-1.683 1.899c-.234.296-.426.513-.426.483 0-.096.257-1.027.504-1.824 2.271-7.325 6.44-12.058 12.579-14.282C41.134.296 45.025-.187 48.94.065c5.741.37 10.157 2.12 14.381 5.7.966.818 1.453 1.282 3.919 3.73l3.036 2.931c2.264 1.938 4.043 2.833 6.459 3.247 3.443.59 6.586-.103 9.517-2.099 1.551-1.056 3.251-2.709 4.562-4.435.093-.123.177-.216.185-.208.023.023-.137.631-.384 1.468-.853 2.883-2.092 5.545-3.546 7.622-1.496 2.137-3.285 3.867-5.346 5.173-2.954 1.87-6.456 2.924-10.643 3.202-.767.051-3.485.048-4.27-.005z" fill="#00bef4"/><path d="M11.213 73.934c-.029-.029-.308-.077-.621-.108s-.581-.092-.596-.137-.125-.082-.243-.082-.234-.047-.257-.106-.137-.127-.254-.153-.214-.078-.214-.117-.053-.09-.118-.115c-.116-.044-.689-.59-.689-.655 0-.018-.091-.123-.202-.233a1.63 1.63 0 0 1-.292-.401c-.05-.111-.124-.202-.165-.202s-.075-.062-.075-.138a.33.33 0 0 0-.102-.223c-.056-.047-.125-.204-.152-.35s-.097-.312-.154-.369c-.153-.153-.153-2.677 0-2.83.058-.058.127-.223.154-.367s.095-.28.152-.302.103-.123.103-.225.03-.186.066-.186c.065 0 .354-.426.462-.679.03-.071.105-.128.167-.128s.112-.05.112-.11a.11.11 0 0 1 .11-.11c.061 0 .11-.038.11-.084 0-.107.193-.262.495-.398.131-.059.238-.137.238-.174s.101-.089.225-.116.243-.096.265-.153.14-.103.274-.103.299-.048.377-.108c.21-.159 2.175-.161 2.307-.003.05.061.198.11.328.11.143 0 .289.058.369.147.073.081.177.147.231.147s.099.027.099.06.116.115.257.182.257.156.257.197.05.075.11.075a.11.11 0 0 1 .11.11c0 .061.065.11.147.11.133 0 .147-.049.147-.514v-.514h.99.99l-.001 4.494-.061 4.588c-.044.07-.291.089-.971.073l-.911-.021-.021-.569c-.016-.426-.047-.569-.123-.569-.056 0-.123.066-.149.147s-.094.147-.152.147-.105.05-.105.11-.048.11-.106.11a.22.22 0 0 0-.165.093c-.032.051-.149.133-.26.182s-.202.122-.202.164-.095.075-.211.075-.249.045-.294.1-.307.12-.614.148l-.824.089c-.161.023-.317.018-.346-.011zm1.303-1.946c.042-.034.221-.085.396-.113s.38-.112.455-.187.185-.136.246-.136a.11.11 0 0 0 .11-.11c0-.061.047-.11.105-.11s.126-.066.152-.147.086-.148.133-.15c.089-.003.42-.623.418-.782-.001-.048.051-.117.115-.153.099-.055.113-.206.092-.997-.016-.608-.054-.95-.11-.985-.047-.029-.109-.146-.138-.26s-.097-.224-.153-.246-.101-.101-.101-.177-.042-.139-.093-.139-.125-.074-.165-.164-.151-.203-.247-.25-.195-.116-.22-.152c-.115-.167-.603-.388-.861-.391-.157-.002-.404-.046-.549-.098-.216-.077-.323-.077-.587.003a2.56 2.56 0 0 1-.593.098c-.148.001-.319.051-.38.111s-.14.11-.177.11-.144.066-.237.147-.214.147-.268.147-.099.05-.099.11-.034.11-.075.11-.115.091-.164.202-.131.228-.182.26-.093.112-.093.178-.058.183-.128.261c-.11.121-.128.295-.128 1.203 0 .934.015 1.07.128 1.133.071.04.128.154.128.254s.05.201.11.224.11.074.11.114c0 .087.492.566.78.76.214.144.634.287 1.164.398.322.067.982.022 1.104-.076zm48.087 1.916c-.101-.034-.35-.066-.555-.07s-.435-.056-.514-.115-.234-.109-.346-.11-.222-.05-.245-.108-.137-.127-.254-.153-.214-.094-.214-.151-.066-.104-.147-.104-.147-.049-.147-.11-.037-.11-.083-.11c-.079 0-.43-.335-.43-.41 0-.019-.099-.132-.22-.251s-.22-.237-.22-.263-.111-.234-.247-.461-.271-.512-.299-.632-.091-.243-.138-.272c-.061-.037-.086-.463-.086-1.456 0-1.251.014-1.413.128-1.496.075-.055.128-.19.128-.324 0-.15.036-.23.104-.23.057 0 .126-.101.154-.225s.096-.243.153-.265.103-.098.103-.169.05-.171.11-.221.11-.125.11-.166c0-.091.348-.421.444-.421.038 0 .07-.05.07-.11s.051-.11.112-.11.13-.047.153-.105.137-.139.254-.18.214-.107.214-.146.101-.094.225-.121.243-.096.265-.153.14-.103.274-.103.299-.049.377-.108c.206-.155 2.07-.159 2.274-.004.078.059.236.109.351.11a.78.78 0 0 1 .395.149c.103.081.228.147.279.147s.111.05.135.11.085.11.136.11.22.116.373.257.31.256.347.256.076-.969.088-2.366l.019-2.366.972-.02.972-.02v6.458 6.458h-.946c-1.085 0-1.035.034-1.035-.703 0-.37-.024-.471-.11-.471-.061 0-.11.037-.11.083 0 .098-.343.43-.444.43-.038 0-.07.033-.07.072s-.116.121-.257.18-.257.142-.257.184-.096.077-.214.077-.227.04-.244.089-.257.111-.575.142l-.839.091c-.161.021-.376.009-.477-.025zm1.536-1.959a1.01 1.01 0 0 1 .39-.099c.111 0 .202-.034.202-.075s.091-.115.202-.164.228-.131.26-.182a.22.22 0 0 1 .165-.093c.059 0 .106-.048.106-.106a.22.22 0 0 1 .093-.165c.051-.032.133-.149.182-.26s.122-.202.164-.202.075-.1.075-.222c0-.13.046-.24.11-.265.09-.034.11-.21.11-.946 0-.706-.024-.928-.11-1.014-.061-.061-.11-.184-.11-.274a.47.47 0 0 0-.11-.28c-.707-.746-.908-.925-1.171-1.045-.102-.047-.186-.108-.186-.136 0-.053-.799-.159-1.247-.165s-1.275.14-1.305.228c-.016.047-.075.085-.133.085s-.161.066-.23.147-.184.147-.256.147-.13.049-.13.11-.034.11-.075.11-.115.091-.164.202-.131.228-.182.26a.23.23 0 0 0-.093.175c0 .064-.057.158-.127.209-.11.081-.127.236-.127 1.206 0 .979.015 1.122.127 1.185.07.039.127.153.127.253s.05.201.11.224.11.074.11.113c0 .087.495.57.767.748.638.418 1.922.571 2.456.292zm10.349 1.958c-.101-.034-.367-.065-.591-.069-.234-.004-.468-.053-.55-.115a.68.68 0 0 0-.344-.11c-.111-.002-.268-.068-.348-.149s-.213-.147-.293-.147-.147-.049-.147-.11a.11.11 0 0 0-.11-.11c-.061 0-.184-.069-.275-.153-.485-.448-.642-.619-.642-.698 0-.048-.05-.106-.11-.13s-.11-.093-.11-.155-.033-.112-.072-.112-.121-.116-.18-.257-.142-.257-.184-.257-.077-.097-.077-.216-.045-.243-.101-.275c-.216-.126-.441-2.136-.277-2.475.041-.084.094-.306.119-.494s.09-.379.144-.424.12-.194.145-.331.07-.259.099-.272c.071-.032.345-.433.404-.592.026-.071.082-.128.123-.128s.076-.066.076-.147.046-.147.102-.147.121-.05.144-.11.093-.11.155-.11.112-.047.112-.105.063-.125.14-.15.158-.093.181-.152.125-.107.227-.107.186-.035.186-.077.113-.124.252-.182.272-.139.298-.18.153-.075.284-.075.303-.048.381-.108c.202-.153 2.125-.158 2.469-.006a2.55 2.55 0 0 0 .516.15c.151.024.275.073.275.108s.101.087.225.114.243.096.265.153.102.103.178.103.139.05.139.11.041.11.092.11c.105 0 .477.338.884.803.32.365.353.684.075.724-.088.013-.199.07-.247.128s-.15.106-.225.106-.138.034-.138.075-.091.115-.202.164-.245.131-.299.182c-.136.13-.376.115-.43-.026-.059-.154-.52-.615-.615-.615-.04 0-.091-.047-.114-.106s-.137-.127-.254-.152-.238-.09-.269-.143c-.102-.177-1.996-.179-2.173-.003-.061.061-.162.11-.225.11s-.181.066-.262.147-.196.147-.257.147a.11.11 0 0 0-.11.11.11.11 0 0 1-.11.11c-.061 0-.11.051-.11.112s-.048.131-.106.153-.126.134-.151.248-.093.226-.151.248-.107.132-.108.245-.051.268-.11.346c-.123.163-.156 1.362-.038 1.362.039 0 .093.124.122.275.048.256.287.684.414.74.03.013.055.066.055.116 0 .109.478.55.832.769a1.08 1.08 0 0 0 .461.155c.116 0 .306.05.422.11.265.138.978.138 1.22-.001.101-.058.261-.106.355-.107s.256-.069.358-.149.232-.147.287-.147.1-.049.1-.11.032-.11.07-.11c.091 0 .444-.353.444-.444 0-.038.165-.07.367-.07.268 0 .367.028.367.104 0 .057.101.126.225.154s.243.096.265.153.097.103.167.103c.174 0 .37.232.37.437 0 .098-.108.271-.257.411-.141.133-.257.277-.257.32s-.035.078-.078.078-.187.116-.32.257-.277.257-.32.257-.121.043-.175.094c-.2.195-.634.419-.812.419-.101 0-.222.045-.268.101-.05.06-.311.119-.651.147l-.861.078c-.161.017-.376.004-.477-.03zm8.877.001c-.101-.034-.402-.066-.67-.07-.336-.005-.515-.041-.578-.117-.05-.061-.158-.11-.239-.11-.155 0-.592-.244-.788-.44-.063-.064-.238-.209-.388-.323s-.273-.254-.273-.311-.05-.123-.11-.146-.11-.077-.11-.12-.054-.138-.12-.211c-.111-.123-.111-.136 0-.179.066-.025.12-.089.12-.142s.099-.118.22-.145.22-.079.22-.118.081-.1.18-.138.313-.153.476-.256l.296-.187.147.147c.081.081.147.178.147.216 0 .104.536.59.652.591.056 0 .144.058.196.129.081.11.222.128 1.009.128.733 0 .942-.023 1.051-.117.075-.064.194-.138.264-.163s.129-.088.129-.14.052-.192.114-.312c.104-.2.103-.241-.019-.491-.073-.15-.182-.293-.242-.316s-.29-.141-.51-.261-.488-.218-.596-.218-.235-.047-.283-.105-.269-.128-.492-.156c-.236-.03-.42-.092-.443-.151s-.143-.101-.279-.101-.281-.05-.331-.11a.39.39 0 0 0-.266-.11c-.096 0-.174-.028-.174-.061s-.09-.108-.2-.165c-.296-.154-.744-.624-.797-.836-.026-.102-.092-.185-.149-.185-.151 0-.15-1.947.001-2.005.057-.022.125-.141.153-.265s.096-.225.154-.225.104-.031.104-.07c0-.091.353-.444.444-.444.039 0 .07-.032.07-.072s.116-.121.257-.18.257-.142.257-.184.107-.077.238-.078a1.16 1.16 0 0 0 .449-.11c.303-.158 2.116-.158 2.248.001.05.061.178.111.284.112a.74.74 0 0 1 .376.145c.101.079.225.144.275.145s.092.036.092.079.096.111.214.152.232.122.254.18.091.105.153.105.112.033.112.073.066.139.147.22.147.213.147.293.033.147.073.147c.148 0 .068.145-.105.189-.098.025-.195.088-.215.141s-.136.118-.256.145-.237.096-.259.154-.104.106-.181.106-.181.05-.231.11a.34.34 0 0 1-.229.11c-.076 0-.138-.05-.138-.11a.11.11 0 0 0-.11-.11c-.061 0-.11-.031-.11-.07 0-.135-.375-.444-.54-.444a.6.6 0 0 1-.308-.108c-.088-.067-.309-.108-.583-.108s-.494.041-.583.108c-.078.059-.219.108-.312.108-.102 0-.169.044-.169.11 0 .061-.048.11-.107.11-.134 0-.22.424-.155.77.029.157.091.257.157.257.06 0 .127.046.149.103s.124.125.227.15.235.095.293.153.221.106.36.106c.158 0 .27.042.296.11.029.076.149.11.392.11.209 0 .384.041.435.102s.232.124.412.151.328.079.328.117.091.09.202.117.28.11.377.185.22.136.275.136.1.05.1.11.031.11.07.11c.096 0 .444.33.444.421 0 .041.05.115.11.166s.11.184.11.297.05.255.11.316c.077.077.11.265.11.62 0 .364-.032.536-.11.601-.061.05-.11.187-.11.305s-.047.231-.11.256-.11.083-.11.133-.066.17-.147.267c-.375.449-.52.579-.693.622-.103.026-.187.093-.187.149 0 .067-.085.102-.251.102-.138 0-.264.041-.281.091-.019.056-.263.11-.648.141l-.911.089c-.161.021-.376.01-.477-.024zm8.584 0c-.101-.034-.402-.066-.67-.07-.336-.005-.515-.041-.578-.117-.05-.061-.173-.11-.273-.11a.72.72 0 0 1-.368-.147c-.103-.081-.232-.147-.287-.147s-.1-.05-.1-.11-.033-.11-.073-.11-.205-.132-.367-.293-.293-.326-.293-.367-.032-.073-.071-.073c-.126 0-.234-.296-.186-.513.035-.159.101-.223.267-.259.121-.027.238-.095.26-.151s.1-.103.173-.103.183-.049.244-.11.141-.11.18-.11.11-.048.159-.107c.078-.094.111-.093.266.009.097.064.177.142.177.175 0 .104.589.658.7.658.059 0 .107.03.107.066 0 .13.472.227 1.1.227s1.1-.097 1.1-.227c0-.036.05-.066.112-.066s.142-.079.179-.176.102-.198.145-.224c.126-.078.098-.626-.032-.626a.11.11 0 0 1-.11-.11c0-.061-.051-.11-.112-.11s-.131-.047-.153-.106-.143-.128-.269-.156-.274-.096-.329-.151-.195-.101-.311-.101-.257-.048-.316-.106-.278-.129-.487-.157-.426-.096-.481-.15-.198-.1-.317-.1c-.126 0-.235-.046-.26-.11s-.135-.11-.265-.11c-.122 0-.222-.034-.222-.075s-.087-.108-.194-.149c-.234-.089-.537-.365-.539-.491-.001-.05-.035-.092-.076-.092s-.115-.091-.164-.202-.131-.245-.182-.299c-.062-.065-.093-.346-.093-.863 0-.695.018-.8.202-1.14.111-.206.271-.45.356-.542s.175-.22.199-.285.096-.118.158-.118.112-.035.112-.077.113-.124.252-.182.272-.139.298-.18.135-.075.243-.075.292-.05.408-.11c.289-.151 2.116-.158 2.24-.009.046.055.22.119.386.141s.323.07.347.105.218.176.43.311.385.274.385.308.05.061.11.061a.11.11 0 0 1 .11.11.11.11 0 0 0 .11.11c.061 0 .11.045.11.1s.068.187.151.293c.166.211.136.341-.077.341a.39.39 0 0 0-.234.093c-.053.051-.188.133-.299.182s-.202.123-.202.164-.079.075-.176.075-.195.05-.218.11-.126.11-.228.11c-.116 0-.186-.041-.186-.11a.11.11 0 0 0-.11-.11c-.061 0-.11-.037-.11-.081 0-.152-.329-.43-.514-.434a.94.94 0 0 1-.367-.109c-.101-.058-.348-.105-.55-.105s-.449.047-.55.105a.88.88 0 0 1-.348.107c-.098.002-.165.048-.165.115 0 .062-.048.131-.106.153-.236.091-.219.925.021 1.013.067.025.287.141.488.259s.474.217.605.219c.161.003.238.04.238.114 0 .082.089.111.348.112.192.002.413.051.491.11s.19.108.249.108c.096 0 .255.065.924.377.399.186.483.245.483.338 0 .051.05.093.11.093a.11.11 0 0 1 .11.11.11.11 0 0 0 .11.11c.061 0 .11.028.11.062s.066.138.147.231.147.226.147.296.05.168.11.218c.154.128.152 1.369-.002 1.573-.059.078-.108.195-.108.259s-.066.173-.147.242-.147.175-.147.236-.05.111-.11.111-.11.065-.11.147-.049.147-.11.147-.11.035-.11.077-.116.125-.257.184-.257.14-.257.18-.113.072-.251.072-.264.041-.281.092c-.019.057-.248.109-.611.139l-.874.088c-.161.022-.376.013-.477-.021zm-85.91-.165c-.141-.04-.422-.09-.624-.11s-.393-.082-.425-.139-.105-.102-.161-.102c-.141 0-.505-.362-.609-.605-.047-.111-.12-.202-.161-.202s-.075-.096-.075-.212-.047-.23-.11-.254c-.095-.037-.11-.415-.11-2.791l-.092-2.808c-.05-.033-.438-.076-.862-.096l-.77-.037-.021-.896L0 64.588l.864-.021.864-.021.021-1.211.021-1.211.273-.126a2.66 2.66 0 0 1 .566-.174c.161-.027.348-.096.415-.154.073-.064.233-.096.403-.083l.282.023.02 1.486.02 1.486h1.099 1.099v.915.915l-1.082.02-1.082.02-.019 2.549.083 2.549c.056 0 .12.066.141.147s.1.147.183.147a1.42 1.42 0 0 1 .408.11c.155.065.491.11.816.11h.553v.835c0 .804-.006.837-.165.879-.256.069-1.456.04-1.742-.042zm15.131-.131c-.07-.112-.091-1.171-.091-4.547V64.66l.165-.041c.091-.023.528-.031.972-.02l.807.021.021 4.329-.022 4.567-.043.238h-.859c-.778 0-.868-.014-.95-.146zm4.36.097c-.027-.027-.049-3.049-.049-6.715v-6.666l.972.02.972.02.019 6.621-.092 6.621c-.061 0-.11.033-.11.073 0 .082-1.631.105-1.712.025zm6.275-.039c-.048-.048-.088-.182-.088-.296s-.048-.226-.11-.25c-.077-.03-.11-.15-.11-.403 0-.239-.034-.374-.101-.4-.056-.022-.122-.197-.149-.396s-.082-.368-.124-.382-.096-.173-.12-.353-.085-.368-.135-.418-.114-.255-.141-.456-.097-.404-.154-.451-.104-.22-.104-.407c0-.237-.029-.321-.11-.321s-.11-.085-.11-.325c0-.179-.044-.369-.098-.423s-.121-.245-.15-.425-.086-.348-.128-.374-.095-.191-.119-.368-.083-.361-.132-.41-.111-.235-.138-.413-.096-.386-.153-.462a.72.72 0 0 1-.107-.363c-.001-.123-.051-.288-.11-.367s-.109-.25-.11-.381l-.003-.238.972.002.972.002.125.273a2.76 2.76 0 0 1 .176.603c.028.182.084.351.123.377s.088.215.108.421.081.411.137.457.101.227.101.438c0 .219.038.377.099.413.054.032.121.222.147.421s.098.437.158.529.11.296.11.454.046.325.102.372.124.265.152.485.083.42.123.445a.56.56 0 0 1 .141.226c.09.236.215.153.218-.144.001-.129.05-.298.109-.375s.128-.299.153-.491.092-.367.148-.388c.065-.025.101-.155.101-.362 0-.189.043-.359.104-.409s.126-.248.153-.445.096-.398.153-.445.104-.212.104-.365.044-.324.099-.378.117-.262.14-.461.076-.375.12-.389.1-.189.127-.388.075-.361.109-.361.082-.116.109-.257l.048-.257h.97.97l.09.348.171.715c.045.202.111.387.148.411s.085.19.108.367.082.372.131.432.113.255.139.431.097.39.156.475.108.255.108.378a.76.76 0 0 0 .101.369c.055.08.126.293.156.475s.088.351.129.377.091.216.11.422.064.375.098.375.089.105.122.233c.087.335.22.34.278.01.027-.154.095-.353.151-.442s.102-.272.102-.406.048-.312.108-.397.129-.298.155-.475.093-.394.149-.484.101-.309.101-.487c0-.221.035-.338.11-.367s.111-.146.112-.356c.001-.173.05-.378.109-.455s.128-.3.154-.494.092-.39.148-.436.101-.219.101-.388a.98.98 0 0 1 .114-.468c.108-.155.164-.163 1.1-.163h.986v.212c0 .121-.047.23-.11.254-.076.029-.11.147-.11.377s-.034.348-.11.377c-.068.026-.11.138-.11.291a1.34 1.34 0 0 1-.147.523c-.081.151-.148.357-.149.458a.65.65 0 0 1-.11.327c-.059.078-.108.248-.108.376s-.047.272-.104.32-.126.248-.153.445-.096.398-.153.445-.104.212-.104.365-.05.329-.11.389-.11.212-.11.336-.066.349-.147.499-.148.357-.149.458a.65.65 0 0 1-.11.327.74.74 0 0 0-.108.38c0 .131-.047.284-.104.341s-.127.256-.155.443-.097.377-.153.424-.102.213-.102.369c0 .204-.031.284-.11.284-.061 0-.11.033-.11.073s-.342.073-.88.073-.88-.028-.88-.073-.045-.073-.101-.073c-.064 0-.118-.126-.149-.348-.027-.192-.097-.413-.156-.491a.72.72 0 0 1-.108-.371c0-.125-.035-.263-.078-.306s-.127-.272-.188-.51l-.378-1.253c-.05-.088-.091-.259-.091-.38s-.044-.264-.098-.318-.121-.242-.149-.418-.1-.389-.159-.474-.108-.26-.108-.389c0-.504-.46-.633-.5-.14a1.08 1.08 0 0 1-.128.438c-.058.082-.105.26-.105.395s-.047.292-.103.349-.126.244-.154.417-.097.386-.153.476a.74.74 0 0 0-.103.33 1.04 1.04 0 0 1-.114.384c-.062.119-.132.357-.156.528s-.088.328-.143.349c-.064.025-.101.156-.101.363 0 .221-.035.338-.11.367s-.11.142-.11.333c0 .176-.065.393-.165.549l-.165.259-.884.003c-.594.003-.913-.026-.972-.085zm12.208-.028c-.025-.064-.045-2.127-.045-4.585v-4.469h.99.99v4.585 4.585h-.946c-.795 0-.953-.019-.99-.116zm4.375.006c-.072-.082-.088-1.065-.073-4.564l.019-4.459.935-.02.935-.02.001.387c.001.39.119.702.194.516.02-.05.083-.092.139-.092s.137-.066.18-.147.127-.147.186-.147.107-.047.107-.104.099-.126.22-.153.22-.095.22-.153c0-.068.082-.105.238-.107.131-.002.303-.051.381-.11.203-.153 1.753-.151 2.049.003.116.06.298.11.405.11.367 0 1.476.867 1.476 1.155 0 .051.031.093.068.093.079 0 .446.746.446.906 0 .06.041.122.092.139.071.024.096.763.113 3.289l-.02 3.426c-.041.165-.056.167-.975.147l-.933-.02-.037-3.142-.157-3.209c-.066-.037-.142-.153-.168-.258-.06-.238-.53-.682-.775-.732-.101-.021-.332-.086-.514-.145-.408-.133-.545-.133-.917.001a2 2 0 0 1-.532.109c-.156.003-.238.039-.238.107 0 .057-.099.126-.22.153s-.22.095-.22.153-.029.104-.065.104-.12.116-.187.257-.152.257-.188.257-.087.124-.113.275a2.52 2.52 0 0 1-.15.506c-.083.186-.104.762-.104 2.916v2.685l-.862-.003c-.652-.003-.884-.028-.954-.108zM19.671 63.067c-.198-.042-.666-.488-.666-.635 0-.052-.048-.159-.108-.237-.14-.186-.142-.504-.003-.619a.39.39 0 0 0 .11-.266c0-.1.044-.174.101-.174s.118-.062.138-.139c.021-.082.13-.159.265-.189.126-.028.229-.081.229-.118 0-.114.661-.078.781.042.061.061.175.11.254.11s.165.058.192.128.093.162.148.203c.134.101.224.739.152 1.076-.058.271-.339.646-.483.646-.042 0-.089.035-.103.077-.029.086-.734.152-1.008.094zm22.921-.01c-.354-.125-.61-.316-.653-.489-.026-.102-.079-.186-.119-.186s-.072-.215-.072-.479c0-.358.028-.49.11-.521.061-.023.11-.105.11-.181s.05-.139.11-.139a.11.11 0 0 0 .11-.11c0-.061.058-.111.128-.112s.192-.051.271-.11.245-.108.37-.108c.371 0 1.065.41 1.065.629 0 .051.041.106.092.123.146.048.112.971-.042 1.141-.068.075-.123.175-.123.222s-.048.086-.106.086-.133.047-.165.104c-.067.118-.852.213-1.086.13z" fill="#fff"/></svg>
